<?xml version="1.0" encoding="UTF-8"?>
<!DOCTYPE svg PUBLIC "-//W3C//DTD SVG 1.1//EN" "http://www.w3.org/Graphics/SVG/1.1/DTD/svg11.dtd">
<svg version="1.1" xmlns="http://www.w3.org/2000/svg" xmlns:xlink="http://www.w3.org/1999/xlink" width="3300" height="2200">
<!--Phosphor Icons (MIT) converted for Rikugan by scripts/gen_icons.py-->
<g id="Notes">
<rect height="2200" id="artboard" style="fill:white;opacity:1" width="3300" x="0" y="0"/>
<text id="template-version" style="stroke:none;fill:black;font-family:sans-serif;font-size:13;" transform="matrix(1 0 0 1 3036 1933)">Template v.3.0</text>
</g>
<g id="Guides">
<line id="Baseline-S" style="fill:none;stroke:#27AAE1;opacity:1;stroke-width:0.5;" x1="263" x2="3036" y1="696.0" y2="696.0"/>
<line id="Capline-S" style="fill:none;stroke:#27AAE1;opacity:1;stroke-width:0.5;" x1="263" x2="3036" y1="625.541" y2="625.541"/>
<line id="Baseline-M" style="fill:none;stroke:#27AAE1;opacity:1;stroke-width:0.5;" x1="263" x2="3036" y1="1126.0" y2="1126.0"/>
<line id="Capline-M" style="fill:none;stroke:#27AAE1;opacity:1;stroke-width:0.5;" x1="263" x2="3036" y1="1055.54" y2="1055.54"/>
<line id="Baseline-L" style="fill:none;stroke:#27AAE1;opacity:1;stroke-width:0.5;" x1="263" x2="3036" y1="1556.0" y2="1556.0"/>
<line id="Capline-L" style="fill:none;stroke:#27AAE1;opacity:1;stroke-width:0.5;" x1="263" x2="3036" y1="1485.54" y2="1485.54"/>
<line id="left-margin-Ultralight-S" style="fill:none;stroke:#00AEEF;stroke-width:0.5;opacity:1.0;" x1="500.870" x2="500.870" y1="601.00" y2="720.00"/>
<line id="right-margin-Ultralight-S" style="fill:none;stroke:#00AEEF;stroke-width:0.5;opacity:1.0;" x1="569.383" x2="569.383" y1="601.00" y2="720.00"/>
<line id="left-margin-Ultralight-M" style="fill:none;stroke:#00AEEF;stroke-width:0.5;opacity:1.0;" x1="500.870" x2="500.870" y1="1031.00" y2="1150.00"/>
<line id="right-margin-Ultralight-M" style="fill:none;stroke:#00AEEF;stroke-width:0.5;opacity:1.0;" x1="588.370" x2="588.370" y1="1031.00" y2="1150.00"/>
<line id="left-margin-Ultralight-L" style="fill:none;stroke:#00AEEF;stroke-width:0.5;opacity:1.0;" x1="500.870" x2="500.870" y1="1461.00" y2="1580.00"/>
<line id="right-margin-Ultralight-L" style="fill:none;stroke:#00AEEF;stroke-width:0.5;opacity:1.0;" x1="613.745" x2="613.745" y1="1461.00" y2="1580.00"/>
<line id="left-margin-Thin-S" style="fill:none;stroke:#00AEEF;stroke-width:0.5;opacity:1.0;" x1="797.580" x2="797.580" y1="601.00" y2="720.00"/>
<line id="right-margin-Thin-S" style="fill:none;stroke:#00AEEF;stroke-width:0.5;opacity:1.0;" x1="866.093" x2="866.093" y1="601.00" y2="720.00"/>
<line id="left-margin-Thin-M" style="fill:none;stroke:#00AEEF;stroke-width:0.5;opacity:1.0;" x1="797.580" x2="797.580" y1="1031.00" y2="1150.00"/>
<line id="right-margin-Thin-M" style="fill:none;stroke:#00AEEF;stroke-width:0.5;opacity:1.0;" x1="885.080" x2="885.080" y1="1031.00" y2="1150.00"/>
<line id="left-margin-Thin-L" style="fill:none;stroke:#00AEEF;stroke-width:0.5;opacity:1.0;" x1="797.580" x2="797.580" y1="1461.00" y2="1580.00"/>
<line id="right-margin-Thin-L" style="fill:none;stroke:#00AEEF;stroke-width:0.5;opacity:1.0;" x1="910.455" x2="910.455" y1="1461.00" y2="1580.00"/>
<line id="left-margin-Light-S" style="fill:none;stroke:#00AEEF;stroke-width:0.5;opacity:1.0;" x1="1094.290" x2="1094.290" y1="601.00" y2="720.00"/>
<line id="right-margin-Light-S" style="fill:none;stroke:#00AEEF;stroke-width:0.5;opacity:1.0;" x1="1162.803" x2="1162.803" y1="601.00" y2="720.00"/>
<line id="left-margin-Light-M" style="fill:none;stroke:#00AEEF;stroke-width:0.5;opacity:1.0;" x1="1094.290" x2="1094.290" y1="1031.00" y2="1150.00"/>
<line id="right-margin-Light-M" style="fill:none;stroke:#00AEEF;stroke-width:0.5;opacity:1.0;" x1="1181.790" x2="1181.790" y1="1031.00" y2="1150.00"/>
<line id="left-margin-Light-L" style="fill:none;stroke:#00AEEF;stroke-width:0.5;opacity:1.0;" x1="1094.290" x2="1094.290" y1="1461.00" y2="1580.00"/>
<line id="right-margin-Light-L" style="fill:none;stroke:#00AEEF;stroke-width:0.5;opacity:1.0;" x1="1207.165" x2="1207.165" y1="1461.00" y2="1580.00"/>
<line id="left-margin-Regular-S" style="fill:none;stroke:#00AEEF;stroke-width:0.5;opacity:1.0;" x1="1391.000" x2="1391.000" y1="601.00" y2="720.00"/>
<line id="right-margin-Regular-S" style="fill:none;stroke:#00AEEF;stroke-width:0.5;opacity:1.0;" x1="1459.513" x2="1459.513" y1="601.00" y2="720.00"/>
<line id="left-margin-Regular-M" style="fill:none;stroke:#00AEEF;stroke-width:0.5;opacity:1.0;" x1="1391.000" x2="1391.000" y1="1031.00" y2="1150.00"/>
<line id="right-margin-Regular-M" style="fill:none;stroke:#00AEEF;stroke-width:0.5;opacity:1.0;" x1="1478.500" x2="1478.500" y1="1031.00" y2="1150.00"/>
<line id="left-margin-Regular-L" style="fill:none;stroke:#00AEEF;stroke-width:0.5;opacity:1.0;" x1="1391.000" x2="1391.000" y1="1461.00" y2="1580.00"/>
<line id="right-margin-Regular-L" style="fill:none;stroke:#00AEEF;stroke-width:0.5;opacity:1.0;" x1="1503.875" x2="1503.875" y1="1461.00" y2="1580.00"/>
<line id="left-margin-Medium-S" style="fill:none;stroke:#00AEEF;stroke-width:0.5;opacity:1.0;" x1="1687.710" x2="1687.710" y1="601.00" y2="720.00"/>
<line id="right-margin-Medium-S" style="fill:none;stroke:#00AEEF;stroke-width:0.5;opacity:1.0;" x1="1756.223" x2="1756.223" y1="601.00" y2="720.00"/>
<line id="left-margin-Medium-M" style="fill:none;stroke:#00AEEF;stroke-width:0.5;opacity:1.0;" x1="1687.710" x2="1687.710" y1="1031.00" y2="1150.00"/>
<line id="right-margin-Medium-M" style="fill:none;stroke:#00AEEF;stroke-width:0.5;opacity:1.0;" x1="1775.210" x2="1775.210" y1="1031.00" y2="1150.00"/>
<line id="left-margin-Medium-L" style="fill:none;stroke:#00AEEF;stroke-width:0.5;opacity:1.0;" x1="1687.710" x2="1687.710" y1="1461.00" y2="1580.00"/>
<line id="right-margin-Medium-L" style="fill:none;stroke:#00AEEF;stroke-width:0.5;opacity:1.0;" x1="1800.585" x2="1800.585" y1="1461.00" y2="1580.00"/>
<line id="left-margin-Semibold-S" style="fill:none;stroke:#00AEEF;stroke-width:0.5;opacity:1.0;" x1="1984.420" x2="1984.420" y1="601.00" y2="720.00"/>
<line id="right-margin-Semibold-S" style="fill:none;stroke:#00AEEF;stroke-width:0.5;opacity:1.0;" x1="2052.932" x2="2052.932" y1="601.00" y2="720.00"/>
<line id="left-margin-Semibold-M" style="fill:none;stroke:#00AEEF;stroke-width:0.5;opacity:1.0;" x1="1984.420" x2="1984.420" y1="1031.00" y2="1150.00"/>
<line id="right-margin-Semibold-M" style="fill:none;stroke:#00AEEF;stroke-width:0.5;opacity:1.0;" x1="2071.920" x2="2071.920" y1="1031.00" y2="1150.00"/>
<line id="left-margin-Semibold-L" style="fill:none;stroke:#00AEEF;stroke-width:0.5;opacity:1.0;" x1="1984.420" x2="1984.420" y1="1461.00" y2="1580.00"/>
<line id="right-margin-Semibold-L" style="fill:none;stroke:#00AEEF;stroke-width:0.5;opacity:1.0;" x1="2097.295" x2="2097.295" y1="1461.00" y2="1580.00"/>
<line id="left-margin-Bold-S" style="fill:none;stroke:#00AEEF;stroke-width:0.5;opacity:1.0;" x1="2281.130" x2="2281.130" y1="601.00" y2="720.00"/>
<line id="right-margin-Bold-S" style="fill:none;stroke:#00AEEF;stroke-width:0.5;opacity:1.0;" x1="2349.642" x2="2349.642" y1="601.00" y2="720.00"/>
<line id="left-margin-Bold-M" style="fill:none;stroke:#00AEEF;stroke-width:0.5;opacity:1.0;" x1="2281.130" x2="2281.130" y1="1031.00" y2="1150.00"/>
<line id="right-margin-Bold-M" style="fill:none;stroke:#00AEEF;stroke-width:0.5;opacity:1.0;" x1="2368.630" x2="2368.630" y1="1031.00" y2="1150.00"/>
<line id="left-margin-Bold-L" style="fill:none;stroke:#00AEEF;stroke-width:0.5;opacity:1.0;" x1="2281.130" x2="2281.130" y1="1461.00" y2="1580.00"/>
<line id="right-margin-Bold-L" style="fill:none;stroke:#00AEEF;stroke-width:0.5;opacity:1.0;" x1="2394.005" x2="2394.005" y1="1461.00" y2="1580.00"/>
<line id="left-margin-Heavy-S" style="fill:none;stroke:#00AEEF;stroke-width:0.5;opacity:1.0;" x1="2577.840" x2="2577.840" y1="601.00" y2="720.00"/>
<line id="right-margin-Heavy-S" style="fill:none;stroke:#00AEEF;stroke-width:0.5;opacity:1.0;" x1="2646.352" x2="2646.352" y1="601.00" y2="720.00"/>
<line id="left-margin-Heavy-M" style="fill:none;stroke:#00AEEF;stroke-width:0.5;opacity:1.0;" x1="2577.840" x2="2577.840" y1="1031.00" y2="1150.00"/>
<line id="right-margin-Heavy-M" style="fill:none;stroke:#00AEEF;stroke-width:0.5;opacity:1.0;" x1="2665.340" x2="2665.340" y1="1031.00" y2="1150.00"/>
<line id="left-margin-Heavy-L" style="fill:none;stroke:#00AEEF;stroke-width:0.5;opacity:1.0;" x1="2577.840" x2="2577.840" y1="1461.00" y2="1580.00"/>
<line id="right-margin-Heavy-L" style="fill:none;stroke:#00AEEF;stroke-width:0.5;opacity:1.0;" x1="2690.715" x2="2690.715" y1="1461.00" y2="1580.00"/>
<line id="left-margin-Black-S" style="fill:none;stroke:#00AEEF;stroke-width:0.5;opacity:1.0;" x1="2874.550" x2="2874.550" y1="601.00" y2="720.00"/>
<line id="right-margin-Black-S" style="fill:none;stroke:#00AEEF;stroke-width:0.5;opacity:1.0;" x1="2943.062" x2="2943.062" y1="601.00" y2="720.00"/>
<line id="left-margin-Black-M" style="fill:none;stroke:#00AEEF;stroke-width:0.5;opacity:1.0;" x1="2874.550" x2="2874.550" y1="1031.00" y2="1150.00"/>
<line id="right-margin-Black-M" style="fill:none;stroke:#00AEEF;stroke-width:0.5;opacity:1.0;" x1="2962.050" x2="2962.050" y1="1031.00" y2="1150.00"/>
<line id="left-margin-Black-L" style="fill:none;stroke:#00AEEF;stroke-width:0.5;opacity:1.0;" x1="2874.550" x2="2874.550" y1="1461.00" y2="1580.00"/>
<line id="right-margin-Black-L" style="fill:none;stroke:#00AEEF;stroke-width:0.5;opacity:1.0;" x1="2987.425" x2="2987.425" y1="1461.00" y2="1580.00"/>
</g>
<g id="Symbols">
<g id="Ultralight-S" transform="matrix(1 0 0 1 500.870 696.0)">
<path d="M 55.66640625,-57.0255390625 A 30.3749,30.3749 0 0,0 34.25625,-65.8159375 l -0.305859375,0 A 30.5859,30.5859 0 0,0 3.6703125,-35.23 c 0,12.6075234375 7.81470703125,23.1994335937 20.3977617187,27.6435703125 a 8.66805,8.66805 0 0,0 2.8811953125,0.49855078125 A 8.56406,8.56406 0 0,0 35.4796875,-15.655 a 6.11719,6.11719 0 0,1 6.1171875,-6.1171875 l 14.1337617188,0 a 8.51512,8.51513 0 0,0 8.3499609375,-6.6555 a 30.6991,30.6991 0 0,0 0.76158984375,-7.0653515625 A 30.3596,30.3596 0 0,0 55.66640625,-57.0255390625 Z m 6.0376640625,28.053421875 A 6.08354,6.08354 0 0,1 55.7306367188,-24.2190625 L 41.596875,-24.2190625 a 8.56406,8.56406 0 0,0 -8.5640625,8.5640625 a 6.11719,6.11719 0 0,1 -8.14809375,5.75933203125 C 13.3079414062,-13.9850078125 6.1171875,-23.692984375 6.1171875,-35.23 a 28.1391,28.1391 0 0,1 27.8484960938,-28.1390625 L 34.25625,-63.3690625 a 28.1391,28.1391 0 0,1 27.441703125,34.3969453125 Z M 36.703125,-51.1346875 a 2.44687,2.44688 0 1,1 -2.446875,-2.446875 A 2.44687,2.44688 0 0,1 36.703125,-51.1346875 Z M 23.2453125,-43.7940625 a 2.44687,2.44687 0 1,1 -2.446875,-2.446875 A 2.44687,2.44687 0 0,1 23.2453125,-43.7940625 Z m 0,17.128125 a 2.44687,2.44687 0 1,1 -2.446875,-2.446875 A 2.44687,2.44687 0 0,1 23.2453125,-26.6659375 Z m 26.915625,-17.128125 a 2.44687,2.44687 0 1,1 -2.446875,-2.446875 A 2.44687,2.44687 0 0,1 50.1609375,-43.7940625 Z"/>
</g>
<g id="Ultralight-M" transform="matrix(1 0 0 1 500.870 1126.0)">
<path d="M 71.09375,-63.0659375 A 38.793,38.793 0 0,0 43.75,-74.2925 l -0.390625,0 A 39.0625,39.0625 0 0,0 4.6875,-35.23 c 0,16.1015625 9.98046875,29.62890625 26.05078125,35.3046875 a 11.0703,11.0703 0 0,0 3.6796875,0.63671875 A 10.9375,10.9375 0 0,0 45.3125,-10.23 a 7.8125,7.8125 0 0,1 7.8125,-7.8125 l 18.05078125,0 a 10.875,10.875 0 0,0 10.6640625,-8.5 a 39.207,39.207 0 0,0 0.97265625,-9.0234375 A 38.7734,38.7734 0 0,0 71.09375,-63.0659375 Z m 7.7109375,35.828125 A 7.76953,7.76953 0 0,1 71.17578125,-21.1675 L 53.125,-21.1675 a 10.9375,10.9375 0 0,0 -10.9375,10.9375 a 7.8125,7.8125 0 0,1 -10.40625,7.35546875 C 16.99609375,-8.0971875 7.8125,-20.495625 7.8125,-35.23 a 35.9375,35.9375 0 0,1 35.56640625,-35.9375 L 43.75,-71.1675 a 35.9375,35.9375 0 0,1 35.046875,43.9296875 Z M 46.875,-55.5425 a 3.125,3.125 0 1,1 -3.125,-3.125 A 3.125,3.125 0 0,1 46.875,-55.5425 Z M 29.6875,-46.1675 a 3.125,3.125 0 1,1 -3.125,-3.125 A 3.125,3.125 0 0,1 29.6875,-46.1675 Z m 0,21.875 a 3.125,3.125 0 1,1 -3.125,-3.125 A 3.125,3.125 0 0,1 29.6875,-24.2925 Z m 34.375,-21.875 a 3.125,3.125 0 1,1 -3.125,-3.125 A 3.125,3.125 0 0,1 64.0625,-46.1675 Z"/>
</g>
<g id="Ultralight-L" transform="matrix(1 0 0 1 500.870 1556.0)">
<path d="M 91.7109375,-71.138359375 A 50.0429,50.0429 0 0,0 56.4375,-85.620625 l -0.50390625,0 A 50.3906,50.3906 0 0,0 6.046875,-35.23 c 0,20.771015625 12.8748046875,38.2212890625 33.6055078125,45.543046875 a 14.2807,14.2807 0 0,0 4.746796875,0.8213671875 A 14.1094,14.1094 0 0,0 58.453125,-2.98 a 10.0781,10.0781 0 0,1 10.078125,-10.078125 l 23.2855078125,0 a 14.0288,14.0288 0 0,0 13.756640625,-10.965 a 50.5771,50.5771 0 0,0 1.2547265625,-11.640234375 A 50.0177,50.0177 0 0,0 91.7109375,-71.138359375 Z m 9.947109375,46.21828125 A 10.0227,10.0227 0 0,1 91.8167578125,-17.089375 L 68.53125,-17.089375 a 14.1094,14.1094 0 0,0 -14.109375,14.109375 a 10.0781,10.0781 0 0,1 -13.4240625,9.4885546875 C 21.9249609375,-0.228671875 10.078125,-16.22265625 10.078125,-35.23 a 46.3594,46.3594 0 0,1 45.8806640625,-46.359375 L 56.4375,-81.589375 a 46.3594,46.3594 0 0,1 45.21046875,56.669296875 Z M 60.46875,-61.433125 a 4.03125,4.03125 0 1,1 -4.03125,-4.03125 A 4.03125,4.03125 0 0,1 60.46875,-61.433125 Z M 38.296875,-49.339375 a 4.03125,4.03125 0 1,1 -4.03125,-4.03125 A 4.03125,4.03125 0 0,1 38.296875,-49.339375 Z m 0,28.21875 a 4.03125,4.03125 0 1,1 -4.03125,-4.03125 A 4.03125,4.03125 0 0,1 38.296875,-21.120625 Z m 44.34375,-28.21875 a 4.03125,4.03125 0 1,1 -4.03125,-4.03125 A 4.03125,4.03125 0 0,1 82.640625,-49.339375 Z"/>
</g>
<g id="Thin-S" transform="matrix(1 0 0 1 797.580 696.0)">
<path d="M 55.66640625,-57.0255390625 A 30.3749,30.3749 0 0,0 34.25625,-65.8159375 l -0.305859375,0 A 30.5859,30.5859 0 0,0 3.6703125,-35.23 c 0,12.6075234375 7.81470703125,23.1994335937 20.3977617187,27.6435703125 a 8.66805,8.66805 0 0,0 2.8811953125,0.49855078125 A 8.56406,8.56406 0 0,0 35.4796875,-15.655 a 6.11719,6.11719 0 0,1 6.1171875,-6.1171875 l 14.1337617188,0 a 8.51512,8.51513 0 0,0 8.3499609375,-6.6555 a 30.6991,30.6991 0 0,0 0.76158984375,-7.0653515625 A 30.3596,30.3596 0 0,0 55.66640625,-57.0255390625 Z m 6.0376640625,28.053421875 A 6.08354,6.08354 0 0,1 55.7306367188,-24.2190625 L 41.596875,-24.2190625 a 8.56406,8.56406 0 0,0 -8.5640625,8.5640625 a 6.11719,6.11719 0 0,1 -8.14809375,5.75933203125 C 13.3079414062,-13.9850078125 6.1171875,-23.692984375 6.1171875,-35.23 a 28.1391,28.1391 0 0,1 27.8484960938,-28.1390625 L 34.25625,-63.3690625 a 28.1391,28.1391 0 0,1 27.441703125,34.3969453125 Z M 36.703125,-51.1346875 a 2.44687,2.44688 0 1,1 -2.446875,-2.446875 A 2.44687,2.44688 0 0,1 36.703125,-51.1346875 Z M 23.2453125,-43.7940625 a 2.44687,2.44687 0 1,1 -2.446875,-2.446875 A 2.44687,2.44687 0 0,1 23.2453125,-43.7940625 Z m 0,17.128125 a 2.44687,2.44687 0 1,1 -2.446875,-2.446875 A 2.44687,2.44687 0 0,1 23.2453125,-26.6659375 Z m 26.915625,-17.128125 a 2.44687,2.44687 0 1,1 -2.446875,-2.446875 A 2.44687,2.44687 0 0,1 50.1609375,-43.7940625 Z"/>
</g>
<g id="Thin-M" transform="matrix(1 0 0 1 797.580 1126.0)">
<path d="M 71.09375,-63.0659375 A 38.793,38.793 0 0,0 43.75,-74.2925 l -0.390625,0 A 39.0625,39.0625 0 0,0 4.6875,-35.23 c 0,16.1015625 9.98046875,29.62890625 26.05078125,35.3046875 a 11.0703,11.0703 0 0,0 3.6796875,0.63671875 A 10.9375,10.9375 0 0,0 45.3125,-10.23 a 7.8125,7.8125 0 0,1 7.8125,-7.8125 l 18.05078125,0 a 10.875,10.875 0 0,0 10.6640625,-8.5 a 39.207,39.207 0 0,0 0.97265625,-9.0234375 A 38.7734,38.7734 0 0,0 71.09375,-63.0659375 Z m 7.7109375,35.828125 A 7.76953,7.76953 0 0,1 71.17578125,-21.1675 L 53.125,-21.1675 a 10.9375,10.9375 0 0,0 -10.9375,10.9375 a 7.8125,7.8125 0 0,1 -10.40625,7.35546875 C 16.99609375,-8.0971875 7.8125,-20.495625 7.8125,-35.23 a 35.9375,35.9375 0 0,1 35.56640625,-35.9375 L 43.75,-71.1675 a 35.9375,35.9375 0 0,1 35.046875,43.9296875 Z M 46.875,-55.5425 a 3.125,3.125 0 1,1 -3.125,-3.125 A 3.125,3.125 0 0,1 46.875,-55.5425 Z M 29.6875,-46.1675 a 3.125,3.125 0 1,1 -3.125,-3.125 A 3.125,3.125 0 0,1 29.6875,-46.1675 Z m 0,21.875 a 3.125,3.125 0 1,1 -3.125,-3.125 A 3.125,3.125 0 0,1 29.6875,-24.2925 Z m 34.375,-21.875 a 3.125,3.125 0 1,1 -3.125,-3.125 A 3.125,3.125 0 0,1 64.0625,-46.1675 Z"/>
</g>
<g id="Thin-L" transform="matrix(1 0 0 1 797.580 1556.0)">
<path d="M 91.7109375,-71.138359375 A 50.0429,50.0429 0 0,0 56.4375,-85.620625 l -0.50390625,0 A 50.3906,50.3906 0 0,0 6.046875,-35.23 c 0,20.771015625 12.8748046875,38.2212890625 33.6055078125,45.543046875 a 14.2807,14.2807 0 0,0 4.746796875,0.8213671875 A 14.1094,14.1094 0 0,0 58.453125,-2.98 a 10.0781,10.0781 0 0,1 10.078125,-10.078125 l 23.2855078125,0 a 14.0288,14.0288 0 0,0 13.756640625,-10.965 a 50.5771,50.5771 0 0,0 1.2547265625,-11.640234375 A 50.0177,50.0177 0 0,0 91.7109375,-71.138359375 Z m 9.947109375,46.21828125 A 10.0227,10.0227 0 0,1 91.8167578125,-17.089375 L 68.53125,-17.089375 a 14.1094,14.1094 0 0,0 -14.109375,14.109375 a 10.0781,10.0781 0 0,1 -13.4240625,9.4885546875 C 21.9249609375,-0.228671875 10.078125,-16.22265625 10.078125,-35.23 a 46.3594,46.3594 0 0,1 45.8806640625,-46.359375 L 56.4375,-81.589375 a 46.3594,46.3594 0 0,1 45.21046875,56.669296875 Z M 60.46875,-61.433125 a 4.03125,4.03125 0 1,1 -4.03125,-4.03125 A 4.03125,4.03125 0 0,1 60.46875,-61.433125 Z M 38.296875,-49.339375 a 4.03125,4.03125 0 1,1 -4.03125,-4.03125 A 4.03125,4.03125 0 0,1 38.296875,-49.339375 Z m 0,28.21875 a 4.03125,4.03125 0 1,1 -4.03125,-4.03125 A 4.03125,4.03125 0 0,1 38.296875,-21.120625 Z m 44.34375,-28.21875 a 4.03125,4.03125 0 1,1 -4.03125,-4.03125 A 4.03125,4.03125 0 0,1 82.640625,-49.339375 Z"/>
</g>
<g id="Light-S" transform="matrix(1 0 0 1 1094.290 696.0)">
<path d="M 56.0854335938,-57.4629179688 A 30.9897,30.9897 0 0,0 34.25625,-66.42765625 l -0.305859375,0 A 31.1977,31.1977 0 0,0 3.05859375,-35.23 c 0,12.8736210938 7.97375390625,23.68575 20.7984375,28.2185859375 A 9.24001,9.24001 0 0,0 26.9492695312,-6.47921875 A 9.19413,9.19413 0 0,0 36.09140625,-15.655 a 5.50547,5.50547 0 0,1 5.50546875,-5.50546875 l 14.1337617188,0 a 9.12073,9.12073 0 0,0 8.94638671875,-7.12958203125 A 31.4148,31.4148 0 0,0 65.45390625,-35.5022148438 A 30.9683,30.9683 0 0,0 56.0854335938,-57.4629179688 Z M 61.09846875,-29.1128125 a 5.47182,5.47182 0 0,1 -5.36783203125,4.28203125 L 41.596875,-24.83078125 a 9.17578,9.17578 0 0,0 -9.17578125,9.17578125 a 5.50547,5.50547 0 0,1 -7.340625,5.199609375 C 13.763671875,-14.4743828125 6.72890625,-23.9590820313 6.72890625,-35.23 a 27.5273,27.5273 0 0,1 27.2428945312,-27.52734375 L 34.25625,-62.75734375 a 27.6313,27.6313 0 0,1 27.52734375,27.2887734375 A 27.668,27.668 0 0,1 61.09846875,-29.1128125 Z M 37.31484375,-51.1346875 a 3.05859,3.05859 0 1,1 -3.05859375,-3.05859375 A 3.05859,3.05859 0 0,1 37.31484375,-51.1346875 Z M 23.85703125,-43.7940625 A 3.05859,3.05859 0 1,1 20.7984375,-46.85265625 A 3.05859,3.05859 0 0,1 23.85703125,-43.7940625 Z m 0,17.128125 a 3.05859,3.05859 0 1,1 -3.05859375,-3.05859375 A 3.05859,3.05859 0 0,1 23.85703125,-26.6659375 Z m 26.915625,-17.128125 a 3.05859,3.05859 0 1,1 -3.05859375,-3.05859375 A 3.05859,3.05859 0 0,1 50.77265625,-43.7940625 Z"/>
</g>
<g id="Light-M" transform="matrix(1 0 0 1 1094.290 1126.0)">
<path d="M 71.62890625,-63.62453125 A 39.5781,39.5781 0 0,0 43.75,-75.07375 l -0.390625,0 A 39.8438,39.8438 0 0,0 3.90625,-35.23 c 0,16.44140625 10.18359375,30.25 26.5625,36.0390625 A 11.8008,11.8008 0 0,0 34.41796875,1.48875 A 11.7422,11.7422 0 0,0 46.09375,-10.23 a 7.03125,7.03125 0 0,1 7.03125,-7.03125 l 18.05078125,0 a 11.6484,11.6484 0 0,0 11.42578125,-9.10546875 A 40.1211,40.1211 0 0,0 83.59375,-35.57765625 A 39.5508,39.5508 0 0,0 71.62890625,-63.62453125 Z M 78.03125,-27.4175 a 6.98828,6.98828 0 0,1 -6.85546875,5.46875 L 53.125,-21.94875 a 11.7188,11.7188 0 0,0 -11.71875,11.71875 a 7.03125,7.03125 0 0,1 -9.375,6.640625 C 17.578125,-8.7221875 8.59375,-20.83546875 8.59375,-35.23 a 35.1562,35.1563 0 0,1 34.79296875,-35.15625 L 43.75,-70.38625 a 35.2891,35.2891 0 0,1 35.15625,34.8515625 A 35.3359,35.3359 0 0,1 78.03125,-27.4175 Z M 47.65625,-55.5425 a 3.90625,3.90625 0 1,1 -3.90625,-3.90625 A 3.90625,3.90625 0 0,1 47.65625,-55.5425 Z M 30.46875,-46.1675 A 3.90625,3.90625 0 1,1 26.5625,-50.07375 A 3.90625,3.90625 0 0,1 30.46875,-46.1675 Z m 0,21.875 a 3.90625,3.90625 0 1,1 -3.90625,-3.90625 A 3.90625,3.90625 0 0,1 30.46875,-24.2925 Z m 34.375,-21.875 a 3.90625,3.90625 0 1,1 -3.90625,-3.90625 A 3.90625,3.90625 0 0,1 64.84375,-46.1675 Z"/>
</g>
<g id="Light-L" transform="matrix(1 0 0 1 1094.290 1556.0)">
<path d="M 92.4012890625,-71.8589453125 A 51.0558,51.0558 0 0,0 56.4375,-86.6284375 l -0.50390625,0 A 51.3984,51.3984 0 0,0 5.0390625,-35.23 c 0,21.2094140625 13.1368359375,39.0225 34.265625,46.490390625 A 15.223,15.223 0 0,0 44.3991796875,12.1371875 A 15.1474,15.1474 0 0,0 59.4609375,-2.98 a 9.07031,9.07031 0 0,1 9.0703125,-9.0703125 l 23.2855078125,0 a 15.0265,15.0265 0 0,0 14.7392578125,-11.7460546875 A 51.7562,51.7562 0 0,0 107.8359375,-35.6784765625 A 51.0205,51.0205 0 0,0 92.4012890625,-71.8589453125 Z M 100.6603125,-25.151875 a 9.01488,9.01488 0 0,1 -8.8435546875,7.0546875 L 68.53125,-18.0971875 a 15.1172,15.1172 0 0,0 -15.1171875,15.1171875 a 9.07031,9.07031 0 0,1 -12.09375,8.56640625 C 22.67578125,-1.034921875 11.0859375,-16.6610546875 11.0859375,-35.23 a 45.3516,45.3516 0 0,1 44.8829296875,-45.3515625 L 56.4375,-80.5815625 a 45.5229,45.5229 0 0,1 45.3515625,44.958515625 A 45.5834,45.5834 0 0,1 100.6603125,-25.151875 Z M 61.4765625,-61.433125 a 5.03906,5.03906 0 1,1 -5.0390625,-5.0390625 A 5.03906,5.03906 0 0,1 61.4765625,-61.433125 Z M 39.3046875,-49.339375 A 5.03906,5.03906 0 1,1 34.265625,-54.3784375 A 5.03906,5.03906 0 0,1 39.3046875,-49.339375 Z m 0,28.21875 a 5.03906,5.03906 0 1,1 -5.0390625,-5.0390625 A 5.03906,5.03906 0 0,1 39.3046875,-21.120625 Z m 44.34375,-28.21875 a 5.03906,5.03906 0 1,1 -5.0390625,-5.0390625 A 5.03906,5.03906 0 0,1 83.6484375,-49.339375 Z"/>
</g>
<g id="Regular-S" transform="matrix(1 0 0 1 1391.000 696.0)">
<path d="M 56.5136367188,-57.8972382813 A 31.5861,31.5861 0 0,0 34.25625,-67.039375 l -0.32726953125,0 A 31.8094,31.8094 0 0,0 2.446875,-35.23 c 0,13.151953125 8.1297421875,24.1812421875 21.21440625,28.8027773438 A 9.7875,9.7875 0 0,0 36.703125,-15.655 a 4.89375,4.89375 0 0,1 4.89375,-4.89375 l 14.1337617188,0 a 9.72939,9.72939 0 0,0 9.5428125,-7.60978125 a 31.9409,31.9409 0 0,0 0.79217578125,-7.340625 A 31.5892,31.5892 0 0,0 56.5136367188,-57.8972382813 Z m 3.976171875,28.6620820313 A 4.86011,4.86011 0 0,1 55.7306367188,-25.4425 L 41.596875,-25.4425 a 9.7875,9.7875 0 0,0 -9.7875,9.7875 a 4.89375,4.89375 0 0,1 -6.51786328125,4.60930078125 C 14.2194023437,-14.9515234375 7.340625,-24.2190625 7.340625,-35.23 a 26.9156,26.9156 0 0,1 26.6372929687,-26.915625 l 0.2752734375,0 a 27.0227,27.0227 0 0,1 26.915625,26.6862304687 A 27.1787,27.1787 0 0,1 60.5020429688,-29.23515625 Z M 37.9265625,-51.1346875 a 3.67031,3.67031 0 1,1 -3.6703125,-3.6703125 A 3.67031,3.67031 0 0,1 37.9265625,-51.1346875 Z M 24.46875,-43.7940625 A 3.67031,3.67031 0 1,1 20.7984375,-47.464375 A 3.67031,3.67031 0 0,1 24.46875,-43.7940625 Z m 0,17.128125 a 3.67031,3.67031 0 1,1 -3.6703125,-3.6703125 A 3.67031,3.67031 0 0,1 24.46875,-26.6659375 Z m 26.915625,-17.128125 a 3.67031,3.67031 0 1,1 -3.6703125,-3.6703125 A 3.67031,3.67031 0 0,1 51.384375,-43.7940625 Z"/>
</g>
<g id="Regular-M" transform="matrix(1 0 0 1 1391.000 1126.0)">
<path d="M 72.17578125,-64.17921875 A 40.3398,40.3398 0 0,0 43.75,-75.855 l -0.41796875,0 A 40.625,40.625 0 0,0 3.125,-35.23 c 0,16.796875 10.3828125,30.8828125 27.09375,36.78515625 A 12.5,12.5 0 0,0 46.875,-10.23 a 6.25,6.25 0 0,1 6.25,-6.25 l 18.05078125,0 a 12.4258,12.4258 0 0,0 12.1875,-9.71875 a 40.793,40.793 0 0,0 1.01171875,-9.375 A 40.3438,40.3438 0 0,0 72.17578125,-64.17921875 Z m 5.078125,36.60546875 A 6.20703,6.20703 0 0,1 71.17578125,-22.73 L 53.125,-22.73 a 12.5,12.5 0 0,0 -12.5,12.5 a 6.25,6.25 0 0,1 -8.32421875,5.88671875 C 18.16015625,-9.3315625 9.375,-21.1675 9.375,-35.23 a 34.375,34.375 0 0,1 34.01953125,-34.375 l 0.3515625,0 a 34.5117,34.5117 0 0,1 34.375,34.08203125 A 34.7109,34.7109 0 0,1 77.26953125,-27.57375 Z M 48.4375,-55.5425 a 4.6875,4.6875 0 1,1 -4.6875,-4.6875 A 4.6875,4.6875 0 0,1 48.4375,-55.5425 Z M 31.25,-46.1675 A 4.6875,4.6875 0 1,1 26.5625,-50.855 A 4.6875,4.6875 0 0,1 31.25,-46.1675 Z m 0,21.875 a 4.6875,4.6875 0 1,1 -4.6875,-4.6875 A 4.6875,4.6875 0 0,1 31.25,-24.2925 Z m 34.375,-21.875 a 4.6875,4.6875 0 1,1 -4.6875,-4.6875 A 4.6875,4.6875 0 0,1 65.625,-46.1675 Z"/>
</g>
<g id="Regular-L" transform="matrix(1 0 0 1 1391.000 1556.0)">
<path d="M 93.1067578125,-72.5744921875 A 52.0384,52.0384 0 0,0 56.4375,-87.63625 l -0.5391796875,0 A 52.4062,52.4062 0 0,0 4.03125,-35.23 c 0,21.66796875 13.393828125,39.838828125 34.9509375,47.4528515625 A 16.125,16.125 0 0,0 60.46875,-2.98 a 8.0625,8.0625 0 0,1 8.0625,-8.0625 l 23.2855078125,0 a 16.0293,16.0293 0 0,0 15.721875,-12.5371875 a 52.6229,52.6229 0 0,0 1.3051171875,-12.09375 A 52.0434,52.0434 0 0,0 93.1067578125,-72.5744921875 Z m 6.55078125,47.2210546875 A 8.00707,8.00707 0 0,1 91.8167578125,-19.105 L 68.53125,-19.105 a 16.125,16.125 0 0,0 -16.125,16.125 a 8.0625,8.0625 0 0,1 -10.7382421875,7.5938671875 C 23.4266015625,-1.821015625 12.09375,-17.089375 12.09375,-35.23 a 44.3438,44.3438 0 0,1 43.8851953125,-44.34375 l 0.453515625,0 a 44.5201,44.5201 0 0,1 44.34375,43.9658203125 A 44.7771,44.7771 0 0,1 99.6776953125,-25.3534375 Z M 62.484375,-61.433125 a 6.04688,6.04688 0 1,1 -6.046875,-6.046875 A 6.04688,6.04688 0 0,1 62.484375,-61.433125 Z M 40.3125,-49.339375 A 6.04688,6.04688 0 1,1 34.265625,-55.38625 A 6.04688,6.04688 0 0,1 40.3125,-49.339375 Z m 0,28.21875 a 6.04688,6.04688 0 1,1 -6.046875,-6.046875 A 6.04688,6.04688 0 0,1 40.3125,-21.120625 Z m 44.34375,-28.21875 a 6.04688,6.04688 0 1,1 -6.046875,-6.046875 A 6.04688,6.04688 0 0,1 84.65625,-49.339375 Z"/>
</g>
<g id="Medium-S" transform="matrix(1 0 0 1 1687.710 696.0)">
<path d="M 56.5136367188,-57.8972382813 A 31.5861,31.5861 0 0,0 34.25625,-67.039375 l -0.32726953125,0 A 31.8094,31.8094 0 0,0 2.446875,-35.23 c 0,13.151953125 8.1297421875,24.1812421875 21.21440625,28.8027773438 A 9.7875,9.7875 0 0,0 36.703125,-15.655 a 4.89375,4.89375 0 0,1 4.89375,-4.89375 l 14.1337617188,0 a 9.72939,9.72939 0 0,0 9.5428125,-7.60978125 a 31.9409,31.9409 0 0,0 0.79217578125,-7.340625 A 31.5892,31.5892 0 0,0 56.5136367188,-57.8972382813 Z m 3.976171875,28.6620820313 A 4.86011,4.86011 0 0,1 55.7306367188,-25.4425 L 41.596875,-25.4425 a 9.7875,9.7875 0 0,0 -9.7875,9.7875 a 4.89375,4.89375 0 0,1 -6.51786328125,4.60930078125 C 14.2194023437,-14.9515234375 7.340625,-24.2190625 7.340625,-35.23 a 26.9156,26.9156 0 0,1 26.6372929687,-26.915625 l 0.2752734375,0 a 27.0227,27.0227 0 0,1 26.915625,26.6862304687 A 27.1787,27.1787 0 0,1 60.5020429688,-29.23515625 Z M 37.9265625,-51.1346875 a 3.67031,3.67031 0 1,1 -3.6703125,-3.6703125 A 3.67031,3.67031 0 0,1 37.9265625,-51.1346875 Z M 24.46875,-43.7940625 A 3.67031,3.67031 0 1,1 20.7984375,-47.464375 A 3.67031,3.67031 0 0,1 24.46875,-43.7940625 Z m 0,17.128125 a 3.67031,3.67031 0 1,1 -3.6703125,-3.6703125 A 3.67031,3.67031 0 0,1 24.46875,-26.6659375 Z m 26.915625,-17.128125 a 3.67031,3.67031 0 1,1 -3.6703125,-3.6703125 A 3.67031,3.67031 0 0,1 51.384375,-43.7940625 Z"/>
</g>
<g id="Medium-M" transform="matrix(1 0 0 1 1687.710 1126.0)">
<path d="M 72.17578125,-64.17921875 A 40.3398,40.3398 0 0,0 43.75,-75.855 l -0.41796875,0 A 40.625,40.625 0 0,0 3.125,-35.23 c 0,16.796875 10.3828125,30.8828125 27.09375,36.78515625 A 12.5,12.5 0 0,0 46.875,-10.23 a 6.25,6.25 0 0,1 6.25,-6.25 l 18.05078125,0 a 12.4258,12.4258 0 0,0 12.1875,-9.71875 a 40.793,40.793 0 0,0 1.01171875,-9.375 A 40.3438,40.3438 0 0,0 72.17578125,-64.17921875 Z m 5.078125,36.60546875 A 6.20703,6.20703 0 0,1 71.17578125,-22.73 L 53.125,-22.73 a 12.5,12.5 0 0,0 -12.5,12.5 a 6.25,6.25 0 0,1 -8.32421875,5.88671875 C 18.16015625,-9.3315625 9.375,-21.1675 9.375,-35.23 a 34.375,34.375 0 0,1 34.01953125,-34.375 l 0.3515625,0 a 34.5117,34.5117 0 0,1 34.375,34.08203125 A 34.7109,34.7109 0 0,1 77.26953125,-27.57375 Z M 48.4375,-55.5425 a 4.6875,4.6875 0 1,1 -4.6875,-4.6875 A 4.6875,4.6875 0 0,1 48.4375,-55.5425 Z M 31.25,-46.1675 A 4.6875,4.6875 0 1,1 26.5625,-50.855 A 4.6875,4.6875 0 0,1 31.25,-46.1675 Z m 0,21.875 a 4.6875,4.6875 0 1,1 -4.6875,-4.6875 A 4.6875,4.6875 0 0,1 31.25,-24.2925 Z m 34.375,-21.875 a 4.6875,4.6875 0 1,1 -4.6875,-4.6875 A 4.6875,4.6875 0 0,1 65.625,-46.1675 Z"/>
</g>
<g id="Medium-L" transform="matrix(1 0 0 1 1687.710 1556.0)">
<path d="M 93.1067578125,-72.5744921875 A 52.0384,52.0384 0 0,0 56.4375,-87.63625 l -0.5391796875,0 A 52.4062,52.4062 0 0,0 4.03125,-35.23 c 0,21.66796875 13.393828125,39.838828125 34.9509375,47.4528515625 A 16.125,16.125 0 0,0 60.46875,-2.98 a 8.0625,8.0625 0 0,1 8.0625,-8.0625 l 23.2855078125,0 a 16.0293,16.0293 0 0,0 15.721875,-12.5371875 a 52.6229,52.6229 0 0,0 1.3051171875,-12.09375 A 52.0434,52.0434 0 0,0 93.1067578125,-72.5744921875 Z m 6.55078125,47.2210546875 A 8.00707,8.00707 0 0,1 91.8167578125,-19.105 L 68.53125,-19.105 a 16.125,16.125 0 0,0 -16.125,16.125 a 8.0625,8.0625 0 0,1 -10.7382421875,7.5938671875 C 23.4266015625,-1.821015625 12.09375,-17.089375 12.09375,-35.23 a 44.3438,44.3438 0 0,1 43.8851953125,-44.34375 l 0.453515625,0 a 44.5201,44.5201 0 0,1 44.34375,43.9658203125 A 44.7771,44.7771 0 0,1 99.6776953125,-25.3534375 Z M 62.484375,-61.433125 a 6.04688,6.04688 0 1,1 -6.046875,-6.046875 A 6.04688,6.04688 0 0,1 62.484375,-61.433125 Z M 40.3125,-49.339375 A 6.04688,6.04688 0 1,1 34.265625,-55.38625 A 6.04688,6.04688 0 0,1 40.3125,-49.339375 Z m 0,28.21875 a 6.04688,6.04688 0 1,1 -6.046875,-6.046875 A 6.04688,6.04688 0 0,1 40.3125,-21.120625 Z m 44.34375,-28.21875 a 6.04688,6.04688 0 1,1 -6.046875,-6.046875 A 6.04688,6.04688 0 0,1 84.65625,-49.339375 Z"/>
</g>
<g id="Semibold-S" transform="matrix(1 0 0 1 1984.420 696.0)">
<path d="M 56.5136367188,-57.8972382813 A 31.5861,31.5861 0 0,0 34.25625,-67.039375 l -0.32726953125,0 A 31.8094,31.8094 0 0,0 2.446875,-35.23 c 0,13.151953125 8.1297421875,24.1812421875 21.21440625,28.8027773438 A 9.7875,9.7875 0 0,0 36.703125,-15.655 a 4.89375,4.89375 0 0,1 4.89375,-4.89375 l 14.1337617188,0 a 9.72939,9.72939 0 0,0 9.5428125,-7.60978125 a 31.9409,31.9409 0 0,0 0.79217578125,-7.340625 A 31.5892,31.5892 0 0,0 56.5136367188,-57.8972382813 Z m 3.976171875,28.6620820313 A 4.86011,4.86011 0 0,1 55.7306367188,-25.4425 L 41.596875,-25.4425 a 9.7875,9.7875 0 0,0 -9.7875,9.7875 a 4.89375,4.89375 0 0,1 -6.51786328125,4.60930078125 C 14.2194023437,-14.9515234375 7.340625,-24.2190625 7.340625,-35.23 a 26.9156,26.9156 0 0,1 26.6372929687,-26.915625 l 0.2752734375,0 a 27.0227,27.0227 0 0,1 26.915625,26.6862304687 A 27.1787,27.1787 0 0,1 60.5020429688,-29.23515625 Z M 37.9265625,-51.1346875 a 3.67031,3.67031 0 1,1 -3.6703125,-3.6703125 A 3.67031,3.67031 0 0,1 37.9265625,-51.1346875 Z M 24.46875,-43.7940625 A 3.67031,3.67031 0 1,1 20.7984375,-47.464375 A 3.67031,3.67031 0 0,1 24.46875,-43.7940625 Z m 0,17.128125 a 3.67031,3.67031 0 1,1 -3.6703125,-3.6703125 A 3.67031,3.67031 0 0,1 24.46875,-26.6659375 Z m 26.915625,-17.128125 a 3.67031,3.67031 0 1,1 -3.6703125,-3.6703125 A 3.67031,3.67031 0 0,1 51.384375,-43.7940625 Z"/>
</g>
<g id="Semibold-M" transform="matrix(1 0 0 1 1984.420 1126.0)">
<path d="M 72.17578125,-64.17921875 A 40.3398,40.3398 0 0,0 43.75,-75.855 l -0.41796875,0 A 40.625,40.625 0 0,0 3.125,-35.23 c 0,16.796875 10.3828125,30.8828125 27.09375,36.78515625 A 12.5,12.5 0 0,0 46.875,-10.23 a 6.25,6.25 0 0,1 6.25,-6.25 l 18.05078125,0 a 12.4258,12.4258 0 0,0 12.1875,-9.71875 a 40.793,40.793 0 0,0 1.01171875,-9.375 A 40.3438,40.3438 0 0,0 72.17578125,-64.17921875 Z m 5.078125,36.60546875 A 6.20703,6.20703 0 0,1 71.17578125,-22.73 L 53.125,-22.73 a 12.5,12.5 0 0,0 -12.5,12.5 a 6.25,6.25 0 0,1 -8.32421875,5.88671875 C 18.16015625,-9.3315625 9.375,-21.1675 9.375,-35.23 a 34.375,34.375 0 0,1 34.01953125,-34.375 l 0.3515625,0 a 34.5117,34.5117 0 0,1 34.375,34.08203125 A 34.7109,34.7109 0 0,1 77.26953125,-27.57375 Z M 48.4375,-55.5425 a 4.6875,4.6875 0 1,1 -4.6875,-4.6875 A 4.6875,4.6875 0 0,1 48.4375,-55.5425 Z M 31.25,-46.1675 A 4.6875,4.6875 0 1,1 26.5625,-50.855 A 4.6875,4.6875 0 0,1 31.25,-46.1675 Z m 0,21.875 a 4.6875,4.6875 0 1,1 -4.6875,-4.6875 A 4.6875,4.6875 0 0,1 31.25,-24.2925 Z m 34.375,-21.875 a 4.6875,4.6875 0 1,1 -4.6875,-4.6875 A 4.6875,4.6875 0 0,1 65.625,-46.1675 Z"/>
</g>
<g id="Semibold-L" transform="matrix(1 0 0 1 1984.420 1556.0)">
<path d="M 93.1067578125,-72.5744921875 A 52.0384,52.0384 0 0,0 56.4375,-87.63625 l -0.5391796875,0 A 52.4062,52.4062 0 0,0 4.03125,-35.23 c 0,21.66796875 13.393828125,39.838828125 34.9509375,47.4528515625 A 16.125,16.125 0 0,0 60.46875,-2.98 a 8.0625,8.0625 0 0,1 8.0625,-8.0625 l 23.2855078125,0 a 16.0293,16.0293 0 0,0 15.721875,-12.5371875 a 52.6229,52.6229 0 0,0 1.3051171875,-12.09375 A 52.0434,52.0434 0 0,0 93.1067578125,-72.5744921875 Z m 6.55078125,47.2210546875 A 8.00707,8.00707 0 0,1 91.8167578125,-19.105 L 68.53125,-19.105 a 16.125,16.125 0 0,0 -16.125,16.125 a 8.0625,8.0625 0 0,1 -10.7382421875,7.5938671875 C 23.4266015625,-1.821015625 12.09375,-17.089375 12.09375,-35.23 a 44.3438,44.3438 0 0,1 43.8851953125,-44.34375 l 0.453515625,0 a 44.5201,44.5201 0 0,1 44.34375,43.9658203125 A 44.7771,44.7771 0 0,1 99.6776953125,-25.3534375 Z M 62.484375,-61.433125 a 6.04688,6.04688 0 1,1 -6.046875,-6.046875 A 6.04688,6.04688 0 0,1 62.484375,-61.433125 Z M 40.3125,-49.339375 A 6.04688,6.04688 0 1,1 34.265625,-55.38625 A 6.04688,6.04688 0 0,1 40.3125,-49.339375 Z m 0,28.21875 a 6.04688,6.04688 0 1,1 -6.046875,-6.046875 A 6.04688,6.04688 0 0,1 40.3125,-21.120625 Z m 44.34375,-28.21875 a 6.04688,6.04688 0 1,1 -6.046875,-6.046875 A 6.04688,6.04688 0 0,1 84.65625,-49.339375 Z"/>
</g>
<g id="Bold-S" transform="matrix(1 0 0 1 2281.130 696.0)">
<path d="M 57.3700429687,-58.781171875 A 33.0022,33.0022 0 0,0 1.2234375,-35.23 c 0,13.67803125 8.44171875,25.1569335938 22.021875,29.9558671875 A 11.0109,11.0109 0 0,0 37.9265625,-15.655 a 3.67031,3.67031 0 0,1 3.6703125,-3.6703125 l 14.1337617188,0 a 10.9467,10.9467 0 0,0 10.7356640625,-8.5640625 A 33.2163,33.2163 0 0,0 67.2890625,-35.5083320313 A 32.7973,32.7973 0 0,0 57.3700429687,-58.781171875 Z m 1.9391484375,29.2615664063 a 3.64279,3.64279 0 0,1 -3.5785546875,2.8444921875 L 41.596875,-26.6751132813 a 11.0109,11.0109 0 0,0 -11.0109375,11.0109375 a 3.67031,3.67031 0 0,1 -4.89375,3.4562109375 c -5.09255859375,-1.798453125 -9.37458984375,-4.82034375 -12.3811875,-8.73534375 A 23.2453,23.2453 0 0,1 8.5640625,-35.23 a 25.6922,25.6922 0 0,1 25.4260898437,-25.6921875 L 34.25625,-60.9221875 a 25.7992,25.7992 0 0,1 25.6921875,25.4750273437 A 25.9124,25.9124 0 0,1 59.3091914062,-29.5073710938 Z M 39.15,-51.1346875 a 4.89375,4.89375 0 1,1 -4.89375,-4.89375 A 4.89375,4.89375 0 0,1 39.15,-51.1346875 Z m -13.4578125,7.340625 A 4.89375,4.89375 0 1,1 20.7984375,-48.6878125 A 4.89375,4.89375 0 0,1 25.6921875,-43.7940625 Z m 0,17.128125 a 4.89375,4.89375 0 1,1 -4.89375,-4.89375 A 4.89375,4.89375 0 0,1 25.6921875,-26.6659375 Z m 26.915625,-17.128125 a 4.89375,4.89375 0 1,1 -4.89375,-4.89375 A 4.89375,4.89375 0 0,1 52.6078125,-43.7940625 Z"/>
</g>
<g id="Bold-M" transform="matrix(1 0 0 1 2281.130 1126.0)">
<path d="M 73.26953125,-65.308125 A 42.1484,42.1484 0 0,0 1.5625,-35.23 c 0,17.46875 10.78125,32.12890625 28.125,38.2578125 A 14.0625,14.0625 0 0,0 48.4375,-10.23 a 4.6875,4.6875 0 0,1 4.6875,-4.6875 l 18.05078125,0 a 13.9805,13.9805 0 0,0 13.7109375,-10.9375 A 42.4219,42.4219 0 0,0 85.9375,-35.58546875 A 41.8867,41.8867 0 0,0 73.26953125,-65.308125 Z m 2.4765625,37.37109375 a 4.65234,4.65234 0 0,1 -4.5703125,3.6328125 L 53.125,-24.30421875 a 14.0625,14.0625 0 0,0 -14.0625,14.0625 a 4.6875,4.6875 0 0,1 -6.25,4.4140625 c -6.50390625,-2.296875 -11.97265625,-6.15625 -15.8125,-11.15625 A 29.6875,29.6875 0 0,1 10.9375,-35.23 a 32.8125,32.8125 0 0,1 32.47265625,-32.8125 L 43.75,-68.0425 a 32.9492,32.9492 0 0,1 32.8125,32.53515625 A 33.0937,33.0937 0 0,1 75.74609375,-27.92140625 Z M 50,-55.5425 a 6.25,6.25 0 1,1 -6.25,-6.25 A 6.25,6.25 0 0,1 50,-55.5425 Z m -17.1875,9.375 A 6.25,6.25 0 1,1 26.5625,-52.4175 A 6.25,6.25 0 0,1 32.8125,-46.1675 Z m 0,21.875 a 6.25,6.25 0 1,1 -6.25,-6.25 A 6.25,6.25 0 0,1 32.8125,-24.2925 Z m 34.375,-21.875 a 6.25,6.25 0 1,1 -6.25,-6.25 A 6.25,6.25 0 0,1 67.1875,-46.1675 Z"/>
</g>
<g id="Bold-L" transform="matrix(1 0 0 1 2281.130 1556.0)">
<path d="M 94.5176953125,-74.03078125 A 54.3715,54.3715 0 0,0 2.015625,-35.23 c 0,22.5346875 13.9078125,41.4462890625 36.28125,49.352578125 A 18.1406,18.1406 0 0,0 62.484375,-2.98 a 6.04688,6.04688 0 0,1 6.046875,-6.046875 l 23.2855078125,0 a 18.0348,18.0348 0 0,0 17.687109375,-14.109375 A 54.7242,54.7242 0 0,0 110.859375,-35.6885546875 A 54.0339,54.0339 0 0,0 94.5176953125,-74.03078125 Z m 3.194765625,48.2087109375 a 6.00152,6.00152 0 0,1 -5.895703125,4.686328125 L 68.53125,-21.1357421875 a 18.1406,18.1406 0 0,0 -18.140625,18.140625 a 6.04688,6.04688 0 0,1 -8.0625,5.694140625 c -8.3900390625,-2.96296875 -15.4447265625,-7.9415625 -20.398125,-14.3915625 A 38.2969,38.2969 0 0,1 14.109375,-35.23 a 42.3281,42.3281 0 0,1 41.8897265625,-42.328125 L 56.4375,-77.558125 a 42.5045,42.5045 0 0,1 42.328125,41.9703515625 A 42.6909,42.6909 0 0,1 97.7124609375,-25.8019140625 Z M 64.5,-61.433125 a 8.0625,8.0625 0 1,1 -8.0625,-8.0625 A 8.0625,8.0625 0 0,1 64.5,-61.433125 Z m -22.171875,12.09375 A 8.0625,8.0625 0 1,1 34.265625,-57.401875 A 8.0625,8.0625 0 0,1 42.328125,-49.339375 Z m 0,28.21875 a 8.0625,8.0625 0 1,1 -8.0625,-8.0625 A 8.0625,8.0625 0 0,1 42.328125,-21.120625 Z m 44.34375,-28.21875 a 8.0625,8.0625 0 1,1 -8.0625,-8.0625 A 8.0625,8.0625 0 0,1 86.671875,-49.339375 Z"/>
</g>
<g id="Heavy-S" transform="matrix(1 0 0 1 2577.840 696.0)">
<path d="M 57.3700429687,-58.781171875 A 33.0022,33.0022 0 0,0 1.2234375,-35.23 c 0,13.67803125 8.44171875,25.1569335938 22.021875,29.9558671875 A 11.0109,11.0109 0 0,0 37.9265625,-15.655 a 3.67031,3.67031 0 0,1 3.6703125,-3.6703125 l 14.1337617188,0 a 10.9467,10.9467 0 0,0 10.7356640625,-8.5640625 A 33.2163,33.2163 0 0,0 67.2890625,-35.5083320313 A 32.7973,32.7973 0 0,0 57.3700429687,-58.781171875 Z m 1.9391484375,29.2615664063 a 3.64279,3.64279 0 0,1 -3.5785546875,2.8444921875 L 41.596875,-26.6751132813 a 11.0109,11.0109 0 0,0 -11.0109375,11.0109375 a 3.67031,3.67031 0 0,1 -4.89375,3.4562109375 c -5.09255859375,-1.798453125 -9.37458984375,-4.82034375 -12.3811875,-8.73534375 A 23.2453,23.2453 0 0,1 8.5640625,-35.23 a 25.6922,25.6922 0 0,1 25.4260898437,-25.6921875 L 34.25625,-60.9221875 a 25.7992,25.7992 0 0,1 25.6921875,25.4750273437 A 25.9124,25.9124 0 0,1 59.3091914062,-29.5073710938 Z M 39.15,-51.1346875 a 4.89375,4.89375 0 1,1 -4.89375,-4.89375 A 4.89375,4.89375 0 0,1 39.15,-51.1346875 Z m -13.4578125,7.340625 A 4.89375,4.89375 0 1,1 20.7984375,-48.6878125 A 4.89375,4.89375 0 0,1 25.6921875,-43.7940625 Z m 0,17.128125 a 4.89375,4.89375 0 1,1 -4.89375,-4.89375 A 4.89375,4.89375 0 0,1 25.6921875,-26.6659375 Z m 26.915625,-17.128125 a 4.89375,4.89375 0 1,1 -4.89375,-4.89375 A 4.89375,4.89375 0 0,1 52.6078125,-43.7940625 Z"/>
</g>
<g id="Heavy-M" transform="matrix(1 0 0 1 2577.840 1126.0)">
<path d="M 73.26953125,-65.308125 A 42.1484,42.1484 0 0,0 1.5625,-35.23 c 0,17.46875 10.78125,32.12890625 28.125,38.2578125 A 14.0625,14.0625 0 0,0 48.4375,-10.23 a 4.6875,4.6875 0 0,1 4.6875,-4.6875 l 18.05078125,0 a 13.9805,13.9805 0 0,0 13.7109375,-10.9375 A 42.4219,42.4219 0 0,0 85.9375,-35.58546875 A 41.8867,41.8867 0 0,0 73.26953125,-65.308125 Z m 2.4765625,37.37109375 a 4.65234,4.65234 0 0,1 -4.5703125,3.6328125 L 53.125,-24.30421875 a 14.0625,14.0625 0 0,0 -14.0625,14.0625 a 4.6875,4.6875 0 0,1 -6.25,4.4140625 c -6.50390625,-2.296875 -11.97265625,-6.15625 -15.8125,-11.15625 A 29.6875,29.6875 0 0,1 10.9375,-35.23 a 32.8125,32.8125 0 0,1 32.47265625,-32.8125 L 43.75,-68.0425 a 32.9492,32.9492 0 0,1 32.8125,32.53515625 A 33.0937,33.0937 0 0,1 75.74609375,-27.92140625 Z M 50,-55.5425 a 6.25,6.25 0 1,1 -6.25,-6.25 A 6.25,6.25 0 0,1 50,-55.5425 Z m -17.1875,9.375 A 6.25,6.25 0 1,1 26.5625,-52.4175 A 6.25,6.25 0 0,1 32.8125,-46.1675 Z m 0,21.875 a 6.25,6.25 0 1,1 -6.25,-6.25 A 6.25,6.25 0 0,1 32.8125,-24.2925 Z m 34.375,-21.875 a 6.25,6.25 0 1,1 -6.25,-6.25 A 6.25,6.25 0 0,1 67.1875,-46.1675 Z"/>
</g>
<g id="Heavy-L" transform="matrix(1 0 0 1 2577.840 1556.0)">
<path d="M 94.5176953125,-74.03078125 A 54.3715,54.3715 0 0,0 2.015625,-35.23 c 0,22.5346875 13.9078125,41.4462890625 36.28125,49.352578125 A 18.1406,18.1406 0 0,0 62.484375,-2.98 a 6.04688,6.04688 0 0,1 6.046875,-6.046875 l 23.2855078125,0 a 18.0348,18.0348 0 0,0 17.687109375,-14.109375 A 54.7242,54.7242 0 0,0 110.859375,-35.6885546875 A 54.0339,54.0339 0 0,0 94.5176953125,-74.03078125 Z m 3.194765625,48.2087109375 a 6.00152,6.00152 0 0,1 -5.895703125,4.686328125 L 68.53125,-21.1357421875 a 18.1406,18.1406 0 0,0 -18.140625,18.140625 a 6.04688,6.04688 0 0,1 -8.0625,5.694140625 c -8.3900390625,-2.96296875 -15.4447265625,-7.9415625 -20.398125,-14.3915625 A 38.2969,38.2969 0 0,1 14.109375,-35.23 a 42.3281,42.3281 0 0,1 41.8897265625,-42.328125 L 56.4375,-77.558125 a 42.5045,42.5045 0 0,1 42.328125,41.9703515625 A 42.6909,42.6909 0 0,1 97.7124609375,-25.8019140625 Z M 64.5,-61.433125 a 8.0625,8.0625 0 1,1 -8.0625,-8.0625 A 8.0625,8.0625 0 0,1 64.5,-61.433125 Z m -22.171875,12.09375 A 8.0625,8.0625 0 1,1 34.265625,-57.401875 A 8.0625,8.0625 0 0,1 42.328125,-49.339375 Z m 0,28.21875 a 8.0625,8.0625 0 1,1 -8.0625,-8.0625 A 8.0625,8.0625 0 0,1 42.328125,-21.120625 Z m 44.34375,-28.21875 a 8.0625,8.0625 0 1,1 -8.0625,-8.0625 A 8.0625,8.0625 0 0,1 86.671875,-49.339375 Z"/>
</g>
<g id="Black-S" transform="matrix(1 0 0 1 2874.550 696.0)">
<path d="M 57.3700429687,-58.781171875 A 33.0022,33.0022 0 0,0 1.2234375,-35.23 c 0,13.67803125 8.44171875,25.1569335938 22.021875,29.9558671875 A 11.0109,11.0109 0 0,0 37.9265625,-15.655 a 3.67031,3.67031 0 0,1 3.6703125,-3.6703125 l 14.1337617188,0 a 10.9467,10.9467 0 0,0 10.7356640625,-8.5640625 A 33.2163,33.2163 0 0,0 67.2890625,-35.5083320313 A 32.7973,32.7973 0 0,0 57.3700429687,-58.781171875 Z m 1.9391484375,29.2615664063 a 3.64279,3.64279 0 0,1 -3.5785546875,2.8444921875 L 41.596875,-26.6751132813 a 11.0109,11.0109 0 0,0 -11.0109375,11.0109375 a 3.67031,3.67031 0 0,1 -4.89375,3.4562109375 c -5.09255859375,-1.798453125 -9.37458984375,-4.82034375 -12.3811875,-8.73534375 A 23.2453,23.2453 0 0,1 8.5640625,-35.23 a 25.6922,25.6922 0 0,1 25.4260898437,-25.6921875 L 34.25625,-60.9221875 a 25.7992,25.7992 0 0,1 25.6921875,25.4750273437 A 25.9124,25.9124 0 0,1 59.3091914062,-29.5073710938 Z M 39.15,-51.1346875 a 4.89375,4.89375 0 1,1 -4.89375,-4.89375 A 4.89375,4.89375 0 0,1 39.15,-51.1346875 Z m -13.4578125,7.340625 A 4.89375,4.89375 0 1,1 20.7984375,-48.6878125 A 4.89375,4.89375 0 0,1 25.6921875,-43.7940625 Z m 0,17.128125 a 4.89375,4.89375 0 1,1 -4.89375,-4.89375 A 4.89375,4.89375 0 0,1 25.6921875,-26.6659375 Z m 26.915625,-17.128125 a 4.89375,4.89375 0 1,1 -4.89375,-4.89375 A 4.89375,4.89375 0 0,1 52.6078125,-43.7940625 Z"/>
</g>
<g id="Black-M" transform="matrix(1 0 0 1 2874.550 1126.0)">
<path d="M 73.26953125,-65.308125 A 42.1484,42.1484 0 0,0 1.5625,-35.23 c 0,17.46875 10.78125,32.12890625 28.125,38.2578125 A 14.0625,14.0625 0 0,0 48.4375,-10.23 a 4.6875,4.6875 0 0,1 4.6875,-4.6875 l 18.05078125,0 a 13.9805,13.9805 0 0,0 13.7109375,-10.9375 A 42.4219,42.4219 0 0,0 85.9375,-35.58546875 A 41.8867,41.8867 0 0,0 73.26953125,-65.308125 Z m 2.4765625,37.37109375 a 4.65234,4.65234 0 0,1 -4.5703125,3.6328125 L 53.125,-24.30421875 a 14.0625,14.0625 0 0,0 -14.0625,14.0625 a 4.6875,4.6875 0 0,1 -6.25,4.4140625 c -6.50390625,-2.296875 -11.97265625,-6.15625 -15.8125,-11.15625 A 29.6875,29.6875 0 0,1 10.9375,-35.23 a 32.8125,32.8125 0 0,1 32.47265625,-32.8125 L 43.75,-68.0425 a 32.9492,32.9492 0 0,1 32.8125,32.53515625 A 33.0937,33.0937 0 0,1 75.74609375,-27.92140625 Z M 50,-55.5425 a 6.25,6.25 0 1,1 -6.25,-6.25 A 6.25,6.25 0 0,1 50,-55.5425 Z m -17.1875,9.375 A 6.25,6.25 0 1,1 26.5625,-52.4175 A 6.25,6.25 0 0,1 32.8125,-46.1675 Z m 0,21.875 a 6.25,6.25 0 1,1 -6.25,-6.25 A 6.25,6.25 0 0,1 32.8125,-24.2925 Z m 34.375,-21.875 a 6.25,6.25 0 1,1 -6.25,-6.25 A 6.25,6.25 0 0,1 67.1875,-46.1675 Z"/>
</g>
<g id="Black-L" transform="matrix(1 0 0 1 2874.550 1556.0)">
<path d="M 94.5176953125,-74.03078125 A 54.3715,54.3715 0 0,0 2.015625,-35.23 c 0,22.5346875 13.9078125,41.4462890625 36.28125,49.352578125 A 18.1406,18.1406 0 0,0 62.484375,-2.98 a 6.04688,6.04688 0 0,1 6.046875,-6.046875 l 23.2855078125,0 a 18.0348,18.0348 0 0,0 17.687109375,-14.109375 A 54.7242,54.7242 0 0,0 110.859375,-35.6885546875 A 54.0339,54.0339 0 0,0 94.5176953125,-74.03078125 Z m 3.194765625,48.2087109375 a 6.00152,6.00152 0 0,1 -5.895703125,4.686328125 L 68.53125,-21.1357421875 a 18.1406,18.1406 0 0,0 -18.140625,18.140625 a 6.04688,6.04688 0 0,1 -8.0625,5.694140625 c -8.3900390625,-2.96296875 -15.4447265625,-7.9415625 -20.398125,-14.3915625 A 38.2969,38.2969 0 0,1 14.109375,-35.23 a 42.3281,42.3281 0 0,1 41.8897265625,-42.328125 L 56.4375,-77.558125 a 42.5045,42.5045 0 0,1 42.328125,41.9703515625 A 42.6909,42.6909 0 0,1 97.7124609375,-25.8019140625 Z M 64.5,-61.433125 a 8.0625,8.0625 0 1,1 -8.0625,-8.0625 A 8.0625,8.0625 0 0,1 64.5,-61.433125 Z m -22.171875,12.09375 A 8.0625,8.0625 0 1,1 34.265625,-57.401875 A 8.0625,8.0625 0 0,1 42.328125,-49.339375 Z m 0,28.21875 a 8.0625,8.0625 0 1,1 -8.0625,-8.0625 A 8.0625,8.0625 0 0,1 42.328125,-21.120625 Z m 44.34375,-28.21875 a 8.0625,8.0625 0 1,1 -8.0625,-8.0625 A 8.0625,8.0625 0 0,1 86.671875,-49.339375 Z"/>
</g>
</g>
</svg>
