<?xml version="1.0" encoding="UTF-8"?>
<!DOCTYPE svg PUBLIC "-//W3C//DTD SVG 1.1//EN" "http://www.w3.org/Graphics/SVG/1.1/DTD/svg11.dtd">
<svg version="1.1" xmlns="http://www.w3.org/2000/svg" xmlns:xlink="http://www.w3.org/1999/xlink" width="3300" height="2200">
<!--Phosphor Icons (MIT) converted for Rikugan by scripts/gen_icons.py-->
<g id="Notes">
<rect height="2200" id="artboard" style="fill:white;opacity:1" width="3300" x="0" y="0"/>
<text id="template-version" style="stroke:none;fill:black;font-family:sans-serif;font-size:13;" transform="matrix(1 0 0 1 3036 1933)">Template v.3.0</text>
</g>
<g id="Guides">
<line id="Baseline-S" style="fill:none;stroke:#27AAE1;opacity:1;stroke-width:0.5;" x1="263" x2="3036" y1="696.0" y2="696.0"/>
<line id="Capline-S" style="fill:none;stroke:#27AAE1;opacity:1;stroke-width:0.5;" x1="263" x2="3036" y1="625.541" y2="625.541"/>
<line id="Baseline-M" style="fill:none;stroke:#27AAE1;opacity:1;stroke-width:0.5;" x1="263" x2="3036" y1="1126.0" y2="1126.0"/>
<line id="Capline-M" style="fill:none;stroke:#27AAE1;opacity:1;stroke-width:0.5;" x1="263" x2="3036" y1="1055.54" y2="1055.54"/>
<line id="Baseline-L" style="fill:none;stroke:#27AAE1;opacity:1;stroke-width:0.5;" x1="263" x2="3036" y1="1556.0" y2="1556.0"/>
<line id="Capline-L" style="fill:none;stroke:#27AAE1;opacity:1;stroke-width:0.5;" x1="263" x2="3036" y1="1485.54" y2="1485.54"/>
<line id="left-margin-Regular-M" style="fill:none;stroke:#00AEEF;stroke-width:0.5;opacity:1.0;" x1="1391.000" x2="1391.000" y1="1030.79" y2="1150.12"/>
<line id="right-margin-Regular-M" style="fill:none;stroke:#00AEEF;stroke-width:0.5;opacity:1.0;" x1="1478.500" x2="1478.500" y1="1030.79" y2="1150.12"/>
</g>
<g id="Symbols">
<g id="Regular-M" transform="matrix(1 0 0 1 1391.0 1126.0)">
<path d="M 48.4375,-14.9175 a 4.6875,4.6875 0 1,1 -4.6875,-4.6875 A 4.6875,4.6875 0 0,1 48.4375,-14.9175 Z M 43.75,-57.105 c -8.6171875,0 -15.625,6.30859375 -15.625,14.0625 l 0,1.5625 a 3.125,3.125 0 0,0 6.25,0 l 0,-1.5625 c 0,-4.296875 4.20703125,-7.8125 9.375,-7.8125 s 9.375,3.515625 9.375,7.8125 s -4.20703125,7.8125 -9.375,7.8125 a 3.125,3.125 0 0,0 -3.125,3.125 l 0,3.125 a 3.125,3.125 0 0,0 6.25,0 l 0,-0.28125 c 7.125,-1.30859375 12.5,-6.9921875 12.5,-13.78125 C 59.375,-50.79640625 52.3671875,-57.105 43.75,-57.105 Z m 40.625,21.875 A 40.625,40.625 0 1,1 43.75,-75.855 A 40.668,40.668 0 0,1 84.375,-35.23 Z m -6.25,0 a 34.375,34.375 0 1,0 -34.375,34.375 A 34.4141,34.4141 0 0,0 78.125,-35.23 Z"/>
</g>
</g>
</svg>
