<?xml version="1.0" encoding="UTF-8"?>
<!DOCTYPE svg PUBLIC "-//W3C//DTD SVG 1.1//EN" "http://www.w3.org/Graphics/SVG/1.1/DTD/svg11.dtd">
<svg version="1.1" xmlns="http://www.w3.org/2000/svg" xmlns:xlink="http://www.w3.org/1999/xlink" width="3300" height="2200">
<!--Phosphor Icons (MIT) converted for Rikugan by scripts/gen_icons.py-->
<g id="Notes">
<rect height="2200" id="artboard" style="fill:white;opacity:1" width="3300" x="0" y="0"/>
<text id="template-version" style="stroke:none;fill:black;font-family:sans-serif;font-size:13;" transform="matrix(1 0 0 1 3036 1933)">Template v.3.0</text>
</g>
<g id="Guides">
<line id="Baseline-S" style="fill:none;stroke:#27AAE1;opacity:1;stroke-width:0.5;" x1="263" x2="3036" y1="696.0" y2="696.0"/>
<line id="Capline-S" style="fill:none;stroke:#27AAE1;opacity:1;stroke-width:0.5;" x1="263" x2="3036" y1="625.541" y2="625.541"/>
<line id="Baseline-M" style="fill:none;stroke:#27AAE1;opacity:1;stroke-width:0.5;" x1="263" x2="3036" y1="1126.0" y2="1126.0"/>
<line id="Capline-M" style="fill:none;stroke:#27AAE1;opacity:1;stroke-width:0.5;" x1="263" x2="3036" y1="1055.54" y2="1055.54"/>
<line id="Baseline-L" style="fill:none;stroke:#27AAE1;opacity:1;stroke-width:0.5;" x1="263" x2="3036" y1="1556.0" y2="1556.0"/>
<line id="Capline-L" style="fill:none;stroke:#27AAE1;opacity:1;stroke-width:0.5;" x1="263" x2="3036" y1="1485.54" y2="1485.54"/>
<line id="left-margin-Ultralight-S" style="fill:none;stroke:#00AEEF;stroke-width:0.5;opacity:1.0;" x1="500.870" x2="500.870" y1="601.00" y2="720.00"/>
<line id="right-margin-Ultralight-S" style="fill:none;stroke:#00AEEF;stroke-width:0.5;opacity:1.0;" x1="569.383" x2="569.383" y1="601.00" y2="720.00"/>
<line id="left-margin-Ultralight-M" style="fill:none;stroke:#00AEEF;stroke-width:0.5;opacity:1.0;" x1="500.870" x2="500.870" y1="1031.00" y2="1150.00"/>
<line id="right-margin-Ultralight-M" style="fill:none;stroke:#00AEEF;stroke-width:0.5;opacity:1.0;" x1="588.370" x2="588.370" y1="1031.00" y2="1150.00"/>
<line id="left-margin-Ultralight-L" style="fill:none;stroke:#00AEEF;stroke-width:0.5;opacity:1.0;" x1="500.870" x2="500.870" y1="1461.00" y2="1580.00"/>
<line id="right-margin-Ultralight-L" style="fill:none;stroke:#00AEEF;stroke-width:0.5;opacity:1.0;" x1="613.745" x2="613.745" y1="1461.00" y2="1580.00"/>
<line id="left-margin-Thin-S" style="fill:none;stroke:#00AEEF;stroke-width:0.5;opacity:1.0;" x1="797.580" x2="797.580" y1="601.00" y2="720.00"/>
<line id="right-margin-Thin-S" style="fill:none;stroke:#00AEEF;stroke-width:0.5;opacity:1.0;" x1="866.093" x2="866.093" y1="601.00" y2="720.00"/>
<line id="left-margin-Thin-M" style="fill:none;stroke:#00AEEF;stroke-width:0.5;opacity:1.0;" x1="797.580" x2="797.580" y1="1031.00" y2="1150.00"/>
<line id="right-margin-Thin-M" style="fill:none;stroke:#00AEEF;stroke-width:0.5;opacity:1.0;" x1="885.080" x2="885.080" y1="1031.00" y2="1150.00"/>
<line id="left-margin-Thin-L" style="fill:none;stroke:#00AEEF;stroke-width:0.5;opacity:1.0;" x1="797.580" x2="797.580" y1="1461.00" y2="1580.00"/>
<line id="right-margin-Thin-L" style="fill:none;stroke:#00AEEF;stroke-width:0.5;opacity:1.0;" x1="910.455" x2="910.455" y1="1461.00" y2="1580.00"/>
<line id="left-margin-Light-S" style="fill:none;stroke:#00AEEF;stroke-width:0.5;opacity:1.0;" x1="1094.290" x2="1094.290" y1="601.00" y2="720.00"/>
<line id="right-margin-Light-S" style="fill:none;stroke:#00AEEF;stroke-width:0.5;opacity:1.0;" x1="1162.803" x2="1162.803" y1="601.00" y2="720.00"/>
<line id="left-margin-Light-M" style="fill:none;stroke:#00AEEF;stroke-width:0.5;opacity:1.0;" x1="1094.290" x2="1094.290" y1="1031.00" y2="1150.00"/>
<line id="right-margin-Light-M" style="fill:none;stroke:#00AEEF;stroke-width:0.5;opacity:1.0;" x1="1181.790" x2="1181.790" y1="1031.00" y2="1150.00"/>
<line id="left-margin-Light-L" style="fill:none;stroke:#00AEEF;stroke-width:0.5;opacity:1.0;" x1="1094.290" x2="1094.290" y1="1461.00" y2="1580.00"/>
<line id="right-margin-Light-L" style="fill:none;stroke:#00AEEF;stroke-width:0.5;opacity:1.0;" x1="1207.165" x2="1207.165" y1="1461.00" y2="1580.00"/>
<line id="left-margin-Regular-S" style="fill:none;stroke:#00AEEF;stroke-width:0.5;opacity:1.0;" x1="1391.000" x2="1391.000" y1="601.00" y2="720.00"/>
<line id="right-margin-Regular-S" style="fill:none;stroke:#00AEEF;stroke-width:0.5;opacity:1.0;" x1="1459.513" x2="1459.513" y1="601.00" y2="720.00"/>
<line id="left-margin-Regular-M" style="fill:none;stroke:#00AEEF;stroke-width:0.5;opacity:1.0;" x1="1391.000" x2="1391.000" y1="1031.00" y2="1150.00"/>
<line id="right-margin-Regular-M" style="fill:none;stroke:#00AEEF;stroke-width:0.5;opacity:1.0;" x1="1478.500" x2="1478.500" y1="1031.00" y2="1150.00"/>
<line id="left-margin-Regular-L" style="fill:none;stroke:#00AEEF;stroke-width:0.5;opacity:1.0;" x1="1391.000" x2="1391.000" y1="1461.00" y2="1580.00"/>
<line id="right-margin-Regular-L" style="fill:none;stroke:#00AEEF;stroke-width:0.5;opacity:1.0;" x1="1503.875" x2="1503.875" y1="1461.00" y2="1580.00"/>
<line id="left-margin-Medium-S" style="fill:none;stroke:#00AEEF;stroke-width:0.5;opacity:1.0;" x1="1687.710" x2="1687.710" y1="601.00" y2="720.00"/>
<line id="right-margin-Medium-S" style="fill:none;stroke:#00AEEF;stroke-width:0.5;opacity:1.0;" x1="1756.223" x2="1756.223" y1="601.00" y2="720.00"/>
<line id="left-margin-Medium-M" style="fill:none;stroke:#00AEEF;stroke-width:0.5;opacity:1.0;" x1="1687.710" x2="1687.710" y1="1031.00" y2="1150.00"/>
<line id="right-margin-Medium-M" style="fill:none;stroke:#00AEEF;stroke-width:0.5;opacity:1.0;" x1="1775.210" x2="1775.210" y1="1031.00" y2="1150.00"/>
<line id="left-margin-Medium-L" style="fill:none;stroke:#00AEEF;stroke-width:0.5;opacity:1.0;" x1="1687.710" x2="1687.710" y1="1461.00" y2="1580.00"/>
<line id="right-margin-Medium-L" style="fill:none;stroke:#00AEEF;stroke-width:0.5;opacity:1.0;" x1="1800.585" x2="1800.585" y1="1461.00" y2="1580.00"/>
<line id="left-margin-Semibold-S" style="fill:none;stroke:#00AEEF;stroke-width:0.5;opacity:1.0;" x1="1984.420" x2="1984.420" y1="601.00" y2="720.00"/>
<line id="right-margin-Semibold-S" style="fill:none;stroke:#00AEEF;stroke-width:0.5;opacity:1.0;" x1="2052.932" x2="2052.932" y1="601.00" y2="720.00"/>
<line id="left-margin-Semibold-M" style="fill:none;stroke:#00AEEF;stroke-width:0.5;opacity:1.0;" x1="1984.420" x2="1984.420" y1="1031.00" y2="1150.00"/>
<line id="right-margin-Semibold-M" style="fill:none;stroke:#00AEEF;stroke-width:0.5;opacity:1.0;" x1="2071.920" x2="2071.920" y1="1031.00" y2="1150.00"/>
<line id="left-margin-Semibold-L" style="fill:none;stroke:#00AEEF;stroke-width:0.5;opacity:1.0;" x1="1984.420" x2="1984.420" y1="1461.00" y2="1580.00"/>
<line id="right-margin-Semibold-L" style="fill:none;stroke:#00AEEF;stroke-width:0.5;opacity:1.0;" x1="2097.295" x2="2097.295" y1="1461.00" y2="1580.00"/>
<line id="left-margin-Bold-S" style="fill:none;stroke:#00AEEF;stroke-width:0.5;opacity:1.0;" x1="2281.130" x2="2281.130" y1="601.00" y2="720.00"/>
<line id="right-margin-Bold-S" style="fill:none;stroke:#00AEEF;stroke-width:0.5;opacity:1.0;" x1="2349.642" x2="2349.642" y1="601.00" y2="720.00"/>
<line id="left-margin-Bold-M" style="fill:none;stroke:#00AEEF;stroke-width:0.5;opacity:1.0;" x1="2281.130" x2="2281.130" y1="1031.00" y2="1150.00"/>
<line id="right-margin-Bold-M" style="fill:none;stroke:#00AEEF;stroke-width:0.5;opacity:1.0;" x1="2368.630" x2="2368.630" y1="1031.00" y2="1150.00"/>
<line id="left-margin-Bold-L" style="fill:none;stroke:#00AEEF;stroke-width:0.5;opacity:1.0;" x1="2281.130" x2="2281.130" y1="1461.00" y2="1580.00"/>
<line id="right-margin-Bold-L" style="fill:none;stroke:#00AEEF;stroke-width:0.5;opacity:1.0;" x1="2394.005" x2="2394.005" y1="1461.00" y2="1580.00"/>
<line id="left-margin-Heavy-S" style="fill:none;stroke:#00AEEF;stroke-width:0.5;opacity:1.0;" x1="2577.840" x2="2577.840" y1="601.00" y2="720.00"/>
<line id="right-margin-Heavy-S" style="fill:none;stroke:#00AEEF;stroke-width:0.5;opacity:1.0;" x1="2646.352" x2="2646.352" y1="601.00" y2="720.00"/>
<line id="left-margin-Heavy-M" style="fill:none;stroke:#00AEEF;stroke-width:0.5;opacity:1.0;" x1="2577.840" x2="2577.840" y1="1031.00" y2="1150.00"/>
<line id="right-margin-Heavy-M" style="fill:none;stroke:#00AEEF;stroke-width:0.5;opacity:1.0;" x1="2665.340" x2="2665.340" y1="1031.00" y2="1150.00"/>
<line id="left-margin-Heavy-L" style="fill:none;stroke:#00AEEF;stroke-width:0.5;opacity:1.0;" x1="2577.840" x2="2577.840" y1="1461.00" y2="1580.00"/>
<line id="right-margin-Heavy-L" style="fill:none;stroke:#00AEEF;stroke-width:0.5;opacity:1.0;" x1="2690.715" x2="2690.715" y1="1461.00" y2="1580.00"/>
<line id="left-margin-Black-S" style="fill:none;stroke:#00AEEF;stroke-width:0.5;opacity:1.0;" x1="2874.550" x2="2874.550" y1="601.00" y2="720.00"/>
<line id="right-margin-Black-S" style="fill:none;stroke:#00AEEF;stroke-width:0.5;opacity:1.0;" x1="2943.062" x2="2943.062" y1="601.00" y2="720.00"/>
<line id="left-margin-Black-M" style="fill:none;stroke:#00AEEF;stroke-width:0.5;opacity:1.0;" x1="2874.550" x2="2874.550" y1="1031.00" y2="1150.00"/>
<line id="right-margin-Black-M" style="fill:none;stroke:#00AEEF;stroke-width:0.5;opacity:1.0;" x1="2962.050" x2="2962.050" y1="1031.00" y2="1150.00"/>
<line id="left-margin-Black-L" style="fill:none;stroke:#00AEEF;stroke-width:0.5;opacity:1.0;" x1="2874.550" x2="2874.550" y1="1461.00" y2="1580.00"/>
<line id="right-margin-Black-L" style="fill:none;stroke:#00AEEF;stroke-width:0.5;opacity:1.0;" x1="2987.425" x2="2987.425" y1="1461.00" y2="1580.00"/>
</g>
<g id="Symbols">
<g id="Ultralight-S" transform="matrix(1 0 0 1 500.870 696.0)">
<path d="M 66.065625,-43.7940625 a 1.22344,1.22344 0 0,0 1.2234375,-1.2234375 L 67.2890625,-54.805 a 3.67031,3.67031 0 0,0 -3.6703125,-3.6703125 L 4.89375,-58.4753125 A 3.67031,3.67031 0 0,0 1.2234375,-54.805 L 1.2234375,-45.0175 a 1.22344,1.22344 0 0,0 1.2234375,1.2234375 a 8.56406,8.56406 0 0,1 0,17.128125 a 1.22344,1.22344 0 0,0 -1.2234375,1.2234375 l 0,9.7875 a 3.67031,3.67031 0 0,0 3.6703125,3.6703125 L 63.61875,-11.9846875 a 3.67031,3.67031 0 0,0 3.6703125,-3.6703125 L 67.2890625,-25.4425 a 1.22344,1.22344 0 0,0 -1.2234375,-1.2234375 a 8.56406,8.56406 0 0,1 0,-17.128125 Z M 3.6703125,-15.655 L 3.6703125,-24.2863515625 a 11.0109,11.0109 0 0,0 0,-21.887296875 L 3.6703125,-54.805 a 1.22344,1.22344 0 0,1 1.2234375,-1.2234375 L 23.2453125,-56.0284375 L 23.2453125,-14.4315625 L 4.89375,-14.4315625 A 1.22344,1.22344 0 0,1 3.6703125,-15.655 Z m 51.384375,-19.575 a 11.0293,11.0293 0 0,0 9.7875,10.9436484375 L 64.8421875,-15.655 a 1.22344,1.22344 0 0,1 -1.2234375,1.2234375 L 25.6921875,-14.4315625 L 25.6921875,-56.0284375 L 63.61875,-56.0284375 a 1.22344,1.22344 0 0,1 1.2234375,1.2234375 L 64.8421875,-46.1736484375 A 11.0293,11.0293 0 0,0 55.0546875,-35.23 Z"/>
</g>
<g id="Ultralight-M" transform="matrix(1 0 0 1 500.870 1126.0)">
<path d="M 84.375,-46.1675 a 1.5625,1.5625 0 0,0 1.5625,-1.5625 L 85.9375,-60.23 a 4.6875,4.6875 0 0,0 -4.6875,-4.6875 L 6.25,-64.9175 A 4.6875,4.6875 0 0,0 1.5625,-60.23 L 1.5625,-47.73 a 1.5625,1.5625 0 0,0 1.5625,1.5625 a 10.9375,10.9375 0 0,1 0,21.875 a 1.5625,1.5625 0 0,0 -1.5625,1.5625 l 0,12.5 a 4.6875,4.6875 0 0,0 4.6875,4.6875 L 81.25,-5.5425 a 4.6875,4.6875 0 0,0 4.6875,-4.6875 L 85.9375,-22.73 a 1.5625,1.5625 0 0,0 -1.5625,-1.5625 a 10.9375,10.9375 0 0,1 0,-21.875 Z M 4.6875,-10.23 L 4.6875,-21.2534375 a 14.0625,14.0625 0 0,0 0,-27.953125 L 4.6875,-60.23 a 1.5625,1.5625 0 0,1 1.5625,-1.5625 L 29.6875,-61.7925 L 29.6875,-8.6675 L 6.25,-8.6675 A 1.5625,1.5625 0 0,1 4.6875,-10.23 Z m 65.625,-25 a 14.0859,14.0859 0 0,0 12.5,13.9765625 L 82.8125,-10.23 a 1.5625,1.5625 0 0,1 -1.5625,1.5625 L 32.8125,-8.6675 L 32.8125,-61.7925 L 81.25,-61.7925 a 1.5625,1.5625 0 0,1 1.5625,1.5625 L 82.8125,-49.2065625 A 14.0859,14.0859 0 0,0 70.3125,-35.23 Z"/>
</g>
<g id="Ultralight-L" transform="matrix(1 0 0 1 500.870 1556.0)">
<path d="M 108.84375,-49.339375 a 2.01562,2.01562 0 0,0 2.015625,-2.015625 L 110.859375,-67.48 a 6.04688,6.04688 0 0,0 -6.046875,-6.046875 L 8.0625,-73.526875 A 6.04688,6.04688 0 0,0 2.015625,-67.48 L 2.015625,-51.355 a 2.01562,2.01562 0 0,0 2.015625,2.015625 a 14.1094,14.1094 0 0,1 0,28.21875 a 2.01562,2.01562 0 0,0 -2.015625,2.015625 l 0,16.125 a 6.04688,6.04688 0 0,0 6.046875,6.046875 L 104.8125,3.066875 a 6.04688,6.04688 0 0,0 6.046875,-6.046875 L 110.859375,-19.105 a 2.01562,2.01562 0 0,0 -2.015625,-2.015625 a 14.1094,14.1094 0 0,1 0,-28.21875 Z M 6.046875,-2.98 L 6.046875,-17.200234375 a 18.1406,18.1406 0 0,0 0,-36.05953125 L 6.046875,-67.48 a 2.01562,2.01562 0 0,1 2.015625,-2.015625 L 38.296875,-69.495625 L 38.296875,-0.964375 L 8.0625,-0.964375 A 2.01562,2.01562 0 0,1 6.046875,-2.98 Z m 84.65625,-32.25 a 18.1709,18.1709 0 0,0 16.125,18.029765625 L 106.828125,-2.98 a 2.01562,2.01562 0 0,1 -2.015625,2.015625 L 42.328125,-0.964375 L 42.328125,-69.495625 L 104.8125,-69.495625 a 2.01562,2.01562 0 0,1 2.015625,2.015625 L 106.828125,-53.259765625 A 18.1709,18.1709 0 0,0 90.703125,-35.23 Z"/>
</g>
<g id="Thin-S" transform="matrix(1 0 0 1 797.580 696.0)">
<path d="M 66.065625,-43.7940625 a 1.22344,1.22344 0 0,0 1.2234375,-1.2234375 L 67.2890625,-54.805 a 3.67031,3.67031 0 0,0 -3.6703125,-3.6703125 L 4.89375,-58.4753125 A 3.67031,3.67031 0 0,0 1.2234375,-54.805 L 1.2234375,-45.0175 a 1.22344,1.22344 0 0,0 1.2234375,1.2234375 a 8.56406,8.56406 0 0,1 0,17.128125 a 1.22344,1.22344 0 0,0 -1.2234375,1.2234375 l 0,9.7875 a 3.67031,3.67031 0 0,0 3.6703125,3.6703125 L 63.61875,-11.9846875 a 3.67031,3.67031 0 0,0 3.6703125,-3.6703125 L 67.2890625,-25.4425 a 1.22344,1.22344 0 0,0 -1.2234375,-1.2234375 a 8.56406,8.56406 0 0,1 0,-17.128125 Z M 3.6703125,-15.655 L 3.6703125,-24.2863515625 a 11.0109,11.0109 0 0,0 0,-21.887296875 L 3.6703125,-54.805 a 1.22344,1.22344 0 0,1 1.2234375,-1.2234375 L 23.2453125,-56.0284375 L 23.2453125,-14.4315625 L 4.89375,-14.4315625 A 1.22344,1.22344 0 0,1 3.6703125,-15.655 Z m 51.384375,-19.575 a 11.0293,11.0293 0 0,0 9.7875,10.9436484375 L 64.8421875,-15.655 a 1.22344,1.22344 0 0,1 -1.2234375,1.2234375 L 25.6921875,-14.4315625 L 25.6921875,-56.0284375 L 63.61875,-56.0284375 a 1.22344,1.22344 0 0,1 1.2234375,1.2234375 L 64.8421875,-46.1736484375 A 11.0293,11.0293 0 0,0 55.0546875,-35.23 Z"/>
</g>
<g id="Thin-M" transform="matrix(1 0 0 1 797.580 1126.0)">
<path d="M 84.375,-46.1675 a 1.5625,1.5625 0 0,0 1.5625,-1.5625 L 85.9375,-60.23 a 4.6875,4.6875 0 0,0 -4.6875,-4.6875 L 6.25,-64.9175 A 4.6875,4.6875 0 0,0 1.5625,-60.23 L 1.5625,-47.73 a 1.5625,1.5625 0 0,0 1.5625,1.5625 a 10.9375,10.9375 0 0,1 0,21.875 a 1.5625,1.5625 0 0,0 -1.5625,1.5625 l 0,12.5 a 4.6875,4.6875 0 0,0 4.6875,4.6875 L 81.25,-5.5425 a 4.6875,4.6875 0 0,0 4.6875,-4.6875 L 85.9375,-22.73 a 1.5625,1.5625 0 0,0 -1.5625,-1.5625 a 10.9375,10.9375 0 0,1 0,-21.875 Z M 4.6875,-10.23 L 4.6875,-21.2534375 a 14.0625,14.0625 0 0,0 0,-27.953125 L 4.6875,-60.23 a 1.5625,1.5625 0 0,1 1.5625,-1.5625 L 29.6875,-61.7925 L 29.6875,-8.6675 L 6.25,-8.6675 A 1.5625,1.5625 0 0,1 4.6875,-10.23 Z m 65.625,-25 a 14.0859,14.0859 0 0,0 12.5,13.9765625 L 82.8125,-10.23 a 1.5625,1.5625 0 0,1 -1.5625,1.5625 L 32.8125,-8.6675 L 32.8125,-61.7925 L 81.25,-61.7925 a 1.5625,1.5625 0 0,1 1.5625,1.5625 L 82.8125,-49.2065625 A 14.0859,14.0859 0 0,0 70.3125,-35.23 Z"/>
</g>
<g id="Thin-L" transform="matrix(1 0 0 1 797.580 1556.0)">
<path d="M 108.84375,-49.339375 a 2.01562,2.01562 0 0,0 2.015625,-2.015625 L 110.859375,-67.48 a 6.04688,6.04688 0 0,0 -6.046875,-6.046875 L 8.0625,-73.526875 A 6.04688,6.04688 0 0,0 2.015625,-67.48 L 2.015625,-51.355 a 2.01562,2.01562 0 0,0 2.015625,2.015625 a 14.1094,14.1094 0 0,1 0,28.21875 a 2.01562,2.01562 0 0,0 -2.015625,2.015625 l 0,16.125 a 6.04688,6.04688 0 0,0 6.046875,6.046875 L 104.8125,3.066875 a 6.04688,6.04688 0 0,0 6.046875,-6.046875 L 110.859375,-19.105 a 2.01562,2.01562 0 0,0 -2.015625,-2.015625 a 14.1094,14.1094 0 0,1 0,-28.21875 Z M 6.046875,-2.98 L 6.046875,-17.200234375 a 18.1406,18.1406 0 0,0 0,-36.05953125 L 6.046875,-67.48 a 2.01562,2.01562 0 0,1 2.015625,-2.015625 L 38.296875,-69.495625 L 38.296875,-0.964375 L 8.0625,-0.964375 A 2.01562,2.01562 0 0,1 6.046875,-2.98 Z m 84.65625,-32.25 a 18.1709,18.1709 0 0,0 16.125,18.029765625 L 106.828125,-2.98 a 2.01562,2.01562 0 0,1 -2.015625,2.015625 L 42.328125,-0.964375 L 42.328125,-69.495625 L 104.8125,-69.495625 a 2.01562,2.01562 0 0,1 2.015625,2.015625 L 106.828125,-53.259765625 A 18.1709,18.1709 0 0,0 90.703125,-35.23 Z"/>
</g>
<g id="Light-S" transform="matrix(1 0 0 1 1094.290 696.0)">
<path d="M 66.065625,-43.18234375 a 1.83516,1.83516 0 0,0 1.83515625,-1.83515625 L 67.90078125,-54.805 a 4.28203,4.28203 0 0,0 -4.28203125,-4.28203125 L 4.89375,-59.08703125 A 4.28203,4.28203 0 0,0 0.61171875,-54.805 L 0.61171875,-45.0175 a 1.83516,1.83516 0 0,0 1.83515625,1.83515625 a 7.95234,7.95234 0 0,1 0,15.9046875 a 1.83516,1.83516 0 0,0 -1.83515625,1.83515625 l 0,9.7875 a 4.28203,4.28203 0 0,0 4.28203125,4.28203125 L 63.61875,-11.37296875 a 4.28203,4.28203 0 0,0 4.28203125,-4.28203125 L 67.90078125,-25.4425 a 1.83516,1.83516 0 0,0 -1.83515625,-1.83515625 a 7.95234,7.95234 0 0,1 0,-15.9046875 Z M 4.28203125,-15.655 L 4.28203125,-23.7510976563 a 11.6227,11.6227 0 0,0 0,-22.9578046875 L 4.28203125,-54.805 a 0.611719,0.611719 0 0,1 0.61171875,-0.61171875 L 22.63359375,-55.41671875 L 22.63359375,-15.04328125 L 4.89375,-15.04328125 A 0.611719,0.611719 0 0,1 4.28203125,-15.655 Z m 59.9484375,-8.09609765625 L 64.23046875,-15.655 a 0.611719,0.611719 0 0,1 -0.61171875,0.61171875 L 26.30390625,-15.04328125 L 26.30390625,-55.41671875 L 63.61875,-55.41671875 a 0.611719,0.611719 0 0,1 0.61171875,0.61171875 L 64.23046875,-46.7089023438 a 11.6227,11.6227 0 0,0 0,22.9578046875 Z"/>
</g>
<g id="Light-M" transform="matrix(1 0 0 1 1094.290 1126.0)">
<path d="M 84.375,-45.38625 a 2.34375,2.34375 0 0,0 2.34375,-2.34375 L 86.71875,-60.23 a 5.46875,5.46875 0 0,0 -5.46875,-5.46875 L 6.25,-65.69875 A 5.46875,5.46875 0 0,0 0.78125,-60.23 L 0.78125,-47.73 a 2.34375,2.34375 0 0,0 2.34375,2.34375 a 10.1562,10.1562 0 0,1 0,20.3125 a 2.34375,2.34375 0 0,0 -2.34375,2.34375 l 0,12.5 a 5.46875,5.46875 0 0,0 5.46875,5.46875 L 81.25,-4.76125 a 5.46875,5.46875 0 0,0 5.46875,-5.46875 L 86.71875,-22.73 a 2.34375,2.34375 0 0,0 -2.34375,-2.34375 a 10.1562,10.1562 0 0,1 0,-20.3125 Z M 5.46875,-10.23 L 5.46875,-20.56984375 a 14.8438,14.8438 0 0,0 0,-29.3203125 L 5.46875,-60.23 a 0.78125,0.78125 0 0,1 0.78125,-0.78125 L 28.90625,-61.01125 L 28.90625,-9.44875 L 6.25,-9.44875 A 0.78125,0.78125 0 0,1 5.46875,-10.23 Z m 76.5625,-10.33984375 L 82.03125,-10.23 a 0.78125,0.78125 0 0,1 -0.78125,0.78125 L 33.59375,-9.44875 L 33.59375,-61.01125 L 81.25,-61.01125 a 0.78125,0.78125 0 0,1 0.78125,0.78125 L 82.03125,-49.89015625 a 14.8438,14.8438 0 0,0 0,29.3203125 Z"/>
</g>
<g id="Light-L" transform="matrix(1 0 0 1 1094.290 1556.0)">
<path d="M 108.84375,-48.3315625 a 3.02344,3.02344 0 0,0 3.0234375,-3.0234375 L 111.8671875,-67.48 a 7.05469,7.05469 0 0,0 -7.0546875,-7.0546875 L 8.0625,-74.5346875 A 7.05469,7.05469 0 0,0 1.0078125,-67.48 L 1.0078125,-51.355 a 3.02344,3.02344 0 0,0 3.0234375,3.0234375 a 13.1016,13.1016 0 0,1 0,26.203125 a 3.02344,3.02344 0 0,0 -3.0234375,3.0234375 l 0,16.125 a 7.05469,7.05469 0 0,0 7.0546875,7.0546875 L 104.8125,4.0746875 a 7.05469,7.05469 0 0,0 7.0546875,-7.0546875 L 111.8671875,-19.105 a 3.02344,3.02344 0 0,0 -3.0234375,-3.0234375 a 13.1016,13.1016 0 0,1 0,-26.203125 Z M 7.0546875,-2.98 L 7.0546875,-16.3183984375 a 19.1484,19.1484 0 0,0 0,-37.823203125 L 7.0546875,-67.48 a 1.00781,1.00781 0 0,1 1.0078125,-1.0078125 L 37.2890625,-68.4878125 L 37.2890625,-1.9721875 L 8.0625,-1.9721875 A 1.00781,1.00781 0 0,1 7.0546875,-2.98 Z m 98.765625,-13.3383984375 L 105.8203125,-2.98 a 1.00781,1.00781 0 0,1 -1.0078125,1.0078125 L 43.3359375,-1.9721875 L 43.3359375,-68.4878125 L 104.8125,-68.4878125 a 1.00781,1.00781 0 0,1 1.0078125,1.0078125 L 105.8203125,-54.1416015625 a 19.1484,19.1484 0 0,0 0,37.823203125 Z"/>
</g>
<g id="Regular-S" transform="matrix(1 0 0 1 1391.000 696.0)">
<path d="M 66.065625,-42.570625 a 2.44688,2.44688 0 0,0 2.446875,-2.446875 L 68.5125,-54.805 a 4.89375,4.89375 0 0,0 -4.89375,-4.89375 L 4.89375,-59.69875 A 4.89375,4.89375 0 0,0 0,-54.805 L 0,-45.0175 a 2.44688,2.44688 0 0,0 2.446875,2.446875 a 7.34062,7.34063 0 0,1 0,14.68125 a 2.44688,2.44687 0 0,0 -2.446875,2.446875 l 0,9.7875 a 4.89375,4.89375 0 0,0 4.89375,4.89375 L 63.61875,-10.76125 a 4.89375,4.89375 0 0,0 4.89375,-4.89375 L 68.5125,-25.4425 a 2.44688,2.44687 0 0,0 -2.446875,-2.446875 a 7.34063,7.34063 0 0,1 0,-14.68125 Z M 4.89375,-23.2403125 a 12.2344,12.2344 0 0,0 0,-23.979375 L 4.89375,-54.805 L 22.021875,-54.805 L 22.021875,-15.655 L 4.89375,-15.655 Z m 58.725,0 L 63.61875,-15.655 L 26.915625,-15.655 L 26.915625,-54.805 L 63.61875,-54.805 L 63.61875,-47.2196875 a 12.2344,12.2344 0 0,0 0,23.979375 Z"/>
</g>
<g id="Regular-M" transform="matrix(1 0 0 1 1391.000 1126.0)">
<path d="M 84.375,-44.605 a 3.125,3.125 0 0,0 3.125,-3.125 L 87.5,-60.23 a 6.25,6.25 0 0,0 -6.25,-6.25 L 6.25,-66.48 A 6.25,6.25 0 0,0 0,-60.23 L 0,-47.73 a 3.125,3.125 0 0,0 3.125,3.125 a 9.375,9.375 0 0,1 0,18.75 a 3.125,3.125 0 0,0 -3.125,3.125 l 0,12.5 a 6.25,6.25 0 0,0 6.25,6.25 L 81.25,-3.98 a 6.25,6.25 0 0,0 6.25,-6.25 L 87.5,-22.73 a 3.125,3.125 0 0,0 -3.125,-3.125 a 9.375,9.375 0 0,1 0,-18.75 Z M 6.25,-19.9175 a 15.625,15.625 0 0,0 0,-30.625 L 6.25,-60.23 L 28.125,-60.23 L 28.125,-10.23 L 6.25,-10.23 Z m 75,0 L 81.25,-10.23 L 34.375,-10.23 L 34.375,-60.23 L 81.25,-60.23 L 81.25,-50.5425 a 15.625,15.625 0 0,0 0,30.625 Z"/>
</g>
<g id="Regular-L" transform="matrix(1 0 0 1 1391.000 1556.0)">
<path d="M 108.84375,-47.32375 a 4.03125,4.03125 0 0,0 4.03125,-4.03125 L 112.875,-67.48 a 8.0625,8.0625 0 0,0 -8.0625,-8.0625 L 8.0625,-75.5425 A 8.0625,8.0625 0 0,0 0,-67.48 L 0,-51.355 a 4.03125,4.03125 0 0,0 4.03125,4.03125 a 12.0938,12.0938 0 0,1 0,24.1875 a 4.03125,4.03125 0 0,0 -4.03125,4.03125 l 0,16.125 a 8.0625,8.0625 0 0,0 8.0625,8.0625 L 104.8125,5.0825 a 8.0625,8.0625 0 0,0 8.0625,-8.0625 L 112.875,-19.105 a 4.03125,4.03125 0 0,0 -4.03125,-4.03125 a 12.0938,12.0938 0 0,1 0,-24.1875 Z M 8.0625,-15.476875 a 20.1562,20.1563 0 0,0 0,-39.50625 L 8.0625,-67.48 L 36.28125,-67.48 L 36.28125,-2.98 L 8.0625,-2.98 Z m 96.75,0 L 104.8125,-2.98 L 44.34375,-2.98 L 44.34375,-67.48 L 104.8125,-67.48 L 104.8125,-54.983125 a 20.1562,20.1562 0 0,0 0,39.50625 Z"/>
</g>
<g id="Medium-S" transform="matrix(1 0 0 1 1687.710 696.0)">
<path d="M 66.065625,-42.570625 a 2.44688,2.44688 0 0,0 2.446875,-2.446875 L 68.5125,-54.805 a 4.89375,4.89375 0 0,0 -4.89375,-4.89375 L 4.89375,-59.69875 A 4.89375,4.89375 0 0,0 0,-54.805 L 0,-45.0175 a 2.44688,2.44688 0 0,0 2.446875,2.446875 a 7.34062,7.34063 0 0,1 0,14.68125 a 2.44688,2.44687 0 0,0 -2.446875,2.446875 l 0,9.7875 a 4.89375,4.89375 0 0,0 4.89375,4.89375 L 63.61875,-10.76125 a 4.89375,4.89375 0 0,0 4.89375,-4.89375 L 68.5125,-25.4425 a 2.44688,2.44687 0 0,0 -2.446875,-2.446875 a 7.34063,7.34063 0 0,1 0,-14.68125 Z M 4.89375,-23.2403125 a 12.2344,12.2344 0 0,0 0,-23.979375 L 4.89375,-54.805 L 22.021875,-54.805 L 22.021875,-15.655 L 4.89375,-15.655 Z m 58.725,0 L 63.61875,-15.655 L 26.915625,-15.655 L 26.915625,-54.805 L 63.61875,-54.805 L 63.61875,-47.2196875 a 12.2344,12.2344 0 0,0 0,23.979375 Z"/>
</g>
<g id="Medium-M" transform="matrix(1 0 0 1 1687.710 1126.0)">
<path d="M 84.375,-44.605 a 3.125,3.125 0 0,0 3.125,-3.125 L 87.5,-60.23 a 6.25,6.25 0 0,0 -6.25,-6.25 L 6.25,-66.48 A 6.25,6.25 0 0,0 0,-60.23 L 0,-47.73 a 3.125,3.125 0 0,0 3.125,3.125 a 9.375,9.375 0 0,1 0,18.75 a 3.125,3.125 0 0,0 -3.125,3.125 l 0,12.5 a 6.25,6.25 0 0,0 6.25,6.25 L 81.25,-3.98 a 6.25,6.25 0 0,0 6.25,-6.25 L 87.5,-22.73 a 3.125,3.125 0 0,0 -3.125,-3.125 a 9.375,9.375 0 0,1 0,-18.75 Z M 6.25,-19.9175 a 15.625,15.625 0 0,0 0,-30.625 L 6.25,-60.23 L 28.125,-60.23 L 28.125,-10.23 L 6.25,-10.23 Z m 75,0 L 81.25,-10.23 L 34.375,-10.23 L 34.375,-60.23 L 81.25,-60.23 L 81.25,-50.5425 a 15.625,15.625 0 0,0 0,30.625 Z"/>
</g>
<g id="Medium-L" transform="matrix(1 0 0 1 1687.710 1556.0)">
<path d="M 108.84375,-47.32375 a 4.03125,4.03125 0 0,0 4.03125,-4.03125 L 112.875,-67.48 a 8.0625,8.0625 0 0,0 -8.0625,-8.0625 L 8.0625,-75.5425 A 8.0625,8.0625 0 0,0 0,-67.48 L 0,-51.355 a 4.03125,4.03125 0 0,0 4.03125,4.03125 a 12.0938,12.0938 0 0,1 0,24.1875 a 4.03125,4.03125 0 0,0 -4.03125,4.03125 l 0,16.125 a 8.0625,8.0625 0 0,0 8.0625,8.0625 L 104.8125,5.0825 a 8.0625,8.0625 0 0,0 8.0625,-8.0625 L 112.875,-19.105 a 4.03125,4.03125 0 0,0 -4.03125,-4.03125 a 12.0938,12.0938 0 0,1 0,-24.1875 Z M 8.0625,-15.476875 a 20.1562,20.1563 0 0,0 0,-39.50625 L 8.0625,-67.48 L 36.28125,-67.48 L 36.28125,-2.98 L 8.0625,-2.98 Z m 96.75,0 L 104.8125,-2.98 L 44.34375,-2.98 L 44.34375,-67.48 L 104.8125,-67.48 L 104.8125,-54.983125 a 20.1562,20.1562 0 0,0 0,39.50625 Z"/>
</g>
<g id="Semibold-S" transform="matrix(1 0 0 1 1984.420 696.0)">
<path d="M 66.065625,-42.570625 a 2.44688,2.44688 0 0,0 2.446875,-2.446875 L 68.5125,-54.805 a 4.89375,4.89375 0 0,0 -4.89375,-4.89375 L 4.89375,-59.69875 A 4.89375,4.89375 0 0,0 0,-54.805 L 0,-45.0175 a 2.44688,2.44688 0 0,0 2.446875,2.446875 a 7.34062,7.34063 0 0,1 0,14.68125 a 2.44688,2.44687 0 0,0 -2.446875,2.446875 l 0,9.7875 a 4.89375,4.89375 0 0,0 4.89375,4.89375 L 63.61875,-10.76125 a 4.89375,4.89375 0 0,0 4.89375,-4.89375 L 68.5125,-25.4425 a 2.44688,2.44687 0 0,0 -2.446875,-2.446875 a 7.34063,7.34063 0 0,1 0,-14.68125 Z M 4.89375,-23.2403125 a 12.2344,12.2344 0 0,0 0,-23.979375 L 4.89375,-54.805 L 22.021875,-54.805 L 22.021875,-15.655 L 4.89375,-15.655 Z m 58.725,0 L 63.61875,-15.655 L 26.915625,-15.655 L 26.915625,-54.805 L 63.61875,-54.805 L 63.61875,-47.2196875 a 12.2344,12.2344 0 0,0 0,23.979375 Z"/>
</g>
<g id="Semibold-M" transform="matrix(1 0 0 1 1984.420 1126.0)">
<path d="M 84.375,-44.605 a 3.125,3.125 0 0,0 3.125,-3.125 L 87.5,-60.23 a 6.25,6.25 0 0,0 -6.25,-6.25 L 6.25,-66.48 A 6.25,6.25 0 0,0 0,-60.23 L 0,-47.73 a 3.125,3.125 0 0,0 3.125,3.125 a 9.375,9.375 0 0,1 0,18.75 a 3.125,3.125 0 0,0 -3.125,3.125 l 0,12.5 a 6.25,6.25 0 0,0 6.25,6.25 L 81.25,-3.98 a 6.25,6.25 0 0,0 6.25,-6.25 L 87.5,-22.73 a 3.125,3.125 0 0,0 -3.125,-3.125 a 9.375,9.375 0 0,1 0,-18.75 Z M 6.25,-19.9175 a 15.625,15.625 0 0,0 0,-30.625 L 6.25,-60.23 L 28.125,-60.23 L 28.125,-10.23 L 6.25,-10.23 Z m 75,0 L 81.25,-10.23 L 34.375,-10.23 L 34.375,-60.23 L 81.25,-60.23 L 81.25,-50.5425 a 15.625,15.625 0 0,0 0,30.625 Z"/>
</g>
<g id="Semibold-L" transform="matrix(1 0 0 1 1984.420 1556.0)">
<path d="M 108.84375,-47.32375 a 4.03125,4.03125 0 0,0 4.03125,-4.03125 L 112.875,-67.48 a 8.0625,8.0625 0 0,0 -8.0625,-8.0625 L 8.0625,-75.5425 A 8.0625,8.0625 0 0,0 0,-67.48 L 0,-51.355 a 4.03125,4.03125 0 0,0 4.03125,4.03125 a 12.0938,12.0938 0 0,1 0,24.1875 a 4.03125,4.03125 0 0,0 -4.03125,4.03125 l 0,16.125 a 8.0625,8.0625 0 0,0 8.0625,8.0625 L 104.8125,5.0825 a 8.0625,8.0625 0 0,0 8.0625,-8.0625 L 112.875,-19.105 a 4.03125,4.03125 0 0,0 -4.03125,-4.03125 a 12.0938,12.0938 0 0,1 0,-24.1875 Z M 8.0625,-15.476875 a 20.1562,20.1563 0 0,0 0,-39.50625 L 8.0625,-67.48 L 36.28125,-67.48 L 36.28125,-2.98 L 8.0625,-2.98 Z m 96.75,0 L 104.8125,-2.98 L 44.34375,-2.98 L 44.34375,-67.48 L 104.8125,-67.48 L 104.8125,-54.983125 a 20.1562,20.1562 0 0,0 0,39.50625 Z"/>
</g>
<g id="Bold-S" transform="matrix(1 0 0 1 2281.130 696.0)">
<path d="M 66.065625,-41.3471875 a 3.67031,3.67031 0 0,0 3.6703125,-3.6703125 L 69.7359375,-54.805 a 6.11719,6.11719 0 0,0 -6.1171875,-6.1171875 L 4.89375,-60.9221875 A 6.11719,6.11719 0 0,0 -1.2234375,-54.805 L -1.2234375,-45.0175 a 3.67031,3.67031 0 0,0 3.6703125,3.6703125 a 6.11719,6.11719 0 0,1 0,12.234375 a 3.67031,3.67031 0 0,0 -3.6703125,3.6703125 l 0,9.7875 a 6.11719,6.11719 0 0,0 6.1171875,6.1171875 L 63.61875,-9.5378125 a 6.11719,6.11719 0 0,0 6.1171875,-6.1171875 L 69.7359375,-25.4425 a 3.67031,3.67031 0 0,0 -3.6703125,-3.6703125 a 6.11719,6.11719 0 0,1 0,-12.234375 Z M 6.1171875,-22.2799140625 a 13.4578,13.4578 0 0,0 0,-25.900171875 L 6.1171875,-53.5815625 L 22.021875,-53.5815625 L 22.021875,-16.8784375 L 6.1171875,-16.8784375 Z m 56.278125,0 L 62.3953125,-16.8784375 L 29.3625,-16.8784375 L 29.3625,-53.5815625 L 62.3953125,-53.5815625 L 62.3953125,-48.1800859375 a 13.4578,13.4578 0 0,0 0,25.900171875 Z"/>
</g>
<g id="Bold-M" transform="matrix(1 0 0 1 2281.130 1126.0)">
<path d="M 84.375,-43.0425 a 4.6875,4.6875 0 0,0 4.6875,-4.6875 L 89.0625,-60.23 a 7.8125,7.8125 0 0,0 -7.8125,-7.8125 L 6.25,-68.0425 A 7.8125,7.8125 0 0,0 -1.5625,-60.23 L -1.5625,-47.73 a 4.6875,4.6875 0 0,0 4.6875,4.6875 a 7.8125,7.8125 0 0,1 0,15.625 a 4.6875,4.6875 0 0,0 -4.6875,4.6875 l 0,12.5 a 7.8125,7.8125 0 0,0 7.8125,7.8125 L 81.25,-2.4175 a 7.8125,7.8125 0 0,0 7.8125,-7.8125 L 89.0625,-22.73 a 4.6875,4.6875 0 0,0 -4.6875,-4.6875 a 7.8125,7.8125 0 0,1 0,-15.625 Z M 7.8125,-18.6909375 a 17.1875,17.1875 0 0,0 0,-33.078125 L 7.8125,-58.6675 L 28.125,-58.6675 L 28.125,-11.7925 L 7.8125,-11.7925 Z m 71.875,0 L 79.6875,-11.7925 L 37.5,-11.7925 L 37.5,-58.6675 L 79.6875,-58.6675 L 79.6875,-51.7690625 a 17.1875,17.1875 0 0,0 0,33.078125 Z"/>
</g>
<g id="Bold-L" transform="matrix(1 0 0 1 2281.130 1556.0)">
<path d="M 108.84375,-45.308125 a 6.04688,6.04688 0 0,0 6.046875,-6.046875 L 114.890625,-67.48 a 10.0781,10.0781 0 0,0 -10.078125,-10.078125 L 8.0625,-77.558125 A 10.0781,10.0781 0 0,0 -2.015625,-67.48 L -2.015625,-51.355 a 6.04688,6.04688 0 0,0 6.046875,6.046875 a 10.0781,10.0781 0 0,1 0,20.15625 a 6.04688,6.04688 0 0,0 -6.046875,6.046875 l 0,16.125 a 10.0781,10.0781 0 0,0 10.078125,10.078125 L 104.8125,7.098125 a 10.0781,10.0781 0 0,0 10.078125,-10.078125 L 114.890625,-19.105 a 6.04688,6.04688 0 0,0 -6.046875,-6.046875 a 10.0781,10.0781 0 0,1 0,-20.15625 Z M 10.078125,-13.894609375 a 22.1719,22.1719 0 0,0 0,-42.67078125 L 10.078125,-65.464375 L 36.28125,-65.464375 L 36.28125,-4.995625 L 10.078125,-4.995625 Z m 92.71875,0 L 102.796875,-4.995625 L 48.375,-4.995625 L 48.375,-65.464375 L 102.796875,-65.464375 L 102.796875,-56.565390625 a 22.1719,22.1719 0 0,0 0,42.67078125 Z"/>
</g>
<g id="Heavy-S" transform="matrix(1 0 0 1 2577.840 696.0)">
<path d="M 66.065625,-41.3471875 a 3.67031,3.67031 0 0,0 3.6703125,-3.6703125 L 69.7359375,-54.805 a 6.11719,6.11719 0 0,0 -6.1171875,-6.1171875 L 4.89375,-60.9221875 A 6.11719,6.11719 0 0,0 -1.2234375,-54.805 L -1.2234375,-45.0175 a 3.67031,3.67031 0 0,0 3.6703125,3.6703125 a 6.11719,6.11719 0 0,1 0,12.234375 a 3.67031,3.67031 0 0,0 -3.6703125,3.6703125 l 0,9.7875 a 6.11719,6.11719 0 0,0 6.1171875,6.1171875 L 63.61875,-9.5378125 a 6.11719,6.11719 0 0,0 6.1171875,-6.1171875 L 69.7359375,-25.4425 a 3.67031,3.67031 0 0,0 -3.6703125,-3.6703125 a 6.11719,6.11719 0 0,1 0,-12.234375 Z M 6.1171875,-22.2799140625 a 13.4578,13.4578 0 0,0 0,-25.900171875 L 6.1171875,-53.5815625 L 22.021875,-53.5815625 L 22.021875,-16.8784375 L 6.1171875,-16.8784375 Z m 56.278125,0 L 62.3953125,-16.8784375 L 29.3625,-16.8784375 L 29.3625,-53.5815625 L 62.3953125,-53.5815625 L 62.3953125,-48.1800859375 a 13.4578,13.4578 0 0,0 0,25.900171875 Z"/>
</g>
<g id="Heavy-M" transform="matrix(1 0 0 1 2577.840 1126.0)">
<path d="M 84.375,-43.0425 a 4.6875,4.6875 0 0,0 4.6875,-4.6875 L 89.0625,-60.23 a 7.8125,7.8125 0 0,0 -7.8125,-7.8125 L 6.25,-68.0425 A 7.8125,7.8125 0 0,0 -1.5625,-60.23 L -1.5625,-47.73 a 4.6875,4.6875 0 0,0 4.6875,4.6875 a 7.8125,7.8125 0 0,1 0,15.625 a 4.6875,4.6875 0 0,0 -4.6875,4.6875 l 0,12.5 a 7.8125,7.8125 0 0,0 7.8125,7.8125 L 81.25,-2.4175 a 7.8125,7.8125 0 0,0 7.8125,-7.8125 L 89.0625,-22.73 a 4.6875,4.6875 0 0,0 -4.6875,-4.6875 a 7.8125,7.8125 0 0,1 0,-15.625 Z M 7.8125,-18.6909375 a 17.1875,17.1875 0 0,0 0,-33.078125 L 7.8125,-58.6675 L 28.125,-58.6675 L 28.125,-11.7925 L 7.8125,-11.7925 Z m 71.875,0 L 79.6875,-11.7925 L 37.5,-11.7925 L 37.5,-58.6675 L 79.6875,-58.6675 L 79.6875,-51.7690625 a 17.1875,17.1875 0 0,0 0,33.078125 Z"/>
</g>
<g id="Heavy-L" transform="matrix(1 0 0 1 2577.840 1556.0)">
<path d="M 108.84375,-45.308125 a 6.04688,6.04688 0 0,0 6.046875,-6.046875 L 114.890625,-67.48 a 10.0781,10.0781 0 0,0 -10.078125,-10.078125 L 8.0625,-77.558125 A 10.0781,10.0781 0 0,0 -2.015625,-67.48 L -2.015625,-51.355 a 6.04688,6.04688 0 0,0 6.046875,6.046875 a 10.0781,10.0781 0 0,1 0,20.15625 a 6.04688,6.04688 0 0,0 -6.046875,6.046875 l 0,16.125 a 10.0781,10.0781 0 0,0 10.078125,10.078125 L 104.8125,7.098125 a 10.0781,10.0781 0 0,0 10.078125,-10.078125 L 114.890625,-19.105 a 6.04688,6.04688 0 0,0 -6.046875,-6.046875 a 10.0781,10.0781 0 0,1 0,-20.15625 Z M 10.078125,-13.894609375 a 22.1719,22.1719 0 0,0 0,-42.67078125 L 10.078125,-65.464375 L 36.28125,-65.464375 L 36.28125,-4.995625 L 10.078125,-4.995625 Z m 92.71875,0 L 102.796875,-4.995625 L 48.375,-4.995625 L 48.375,-65.464375 L 102.796875,-65.464375 L 102.796875,-56.565390625 a 22.1719,22.1719 0 0,0 0,42.67078125 Z"/>
</g>
<g id="Black-S" transform="matrix(1 0 0 1 2874.550 696.0)">
<path d="M 66.065625,-41.3471875 a 3.67031,3.67031 0 0,0 3.6703125,-3.6703125 L 69.7359375,-54.805 a 6.11719,6.11719 0 0,0 -6.1171875,-6.1171875 L 4.89375,-60.9221875 A 6.11719,6.11719 0 0,0 -1.2234375,-54.805 L -1.2234375,-45.0175 a 3.67031,3.67031 0 0,0 3.6703125,3.6703125 a 6.11719,6.11719 0 0,1 0,12.234375 a 3.67031,3.67031 0 0,0 -3.6703125,3.6703125 l 0,9.7875 a 6.11719,6.11719 0 0,0 6.1171875,6.1171875 L 63.61875,-9.5378125 a 6.11719,6.11719 0 0,0 6.1171875,-6.1171875 L 69.7359375,-25.4425 a 3.67031,3.67031 0 0,0 -3.6703125,-3.6703125 a 6.11719,6.11719 0 0,1 0,-12.234375 Z M 6.1171875,-22.2799140625 a 13.4578,13.4578 0 0,0 0,-25.900171875 L 6.1171875,-53.5815625 L 22.021875,-53.5815625 L 22.021875,-16.8784375 L 6.1171875,-16.8784375 Z m 56.278125,0 L 62.3953125,-16.8784375 L 29.3625,-16.8784375 L 29.3625,-53.5815625 L 62.3953125,-53.5815625 L 62.3953125,-48.1800859375 a 13.4578,13.4578 0 0,0 0,25.900171875 Z"/>
</g>
<g id="Black-M" transform="matrix(1 0 0 1 2874.550 1126.0)">
<path d="M 84.375,-43.0425 a 4.6875,4.6875 0 0,0 4.6875,-4.6875 L 89.0625,-60.23 a 7.8125,7.8125 0 0,0 -7.8125,-7.8125 L 6.25,-68.0425 A 7.8125,7.8125 0 0,0 -1.5625,-60.23 L -1.5625,-47.73 a 4.6875,4.6875 0 0,0 4.6875,4.6875 a 7.8125,7.8125 0 0,1 0,15.625 a 4.6875,4.6875 0 0,0 -4.6875,4.6875 l 0,12.5 a 7.8125,7.8125 0 0,0 7.8125,7.8125 L 81.25,-2.4175 a 7.8125,7.8125 0 0,0 7.8125,-7.8125 L 89.0625,-22.73 a 4.6875,4.6875 0 0,0 -4.6875,-4.6875 a 7.8125,7.8125 0 0,1 0,-15.625 Z M 7.8125,-18.6909375 a 17.1875,17.1875 0 0,0 0,-33.078125 L 7.8125,-58.6675 L 28.125,-58.6675 L 28.125,-11.7925 L 7.8125,-11.7925 Z m 71.875,0 L 79.6875,-11.7925 L 37.5,-11.7925 L 37.5,-58.6675 L 79.6875,-58.6675 L 79.6875,-51.7690625 a 17.1875,17.1875 0 0,0 0,33.078125 Z"/>
</g>
<g id="Black-L" transform="matrix(1 0 0 1 2874.550 1556.0)">
<path d="M 108.84375,-45.308125 a 6.04688,6.04688 0 0,0 6.046875,-6.046875 L 114.890625,-67.48 a 10.0781,10.0781 0 0,0 -10.078125,-10.078125 L 8.0625,-77.558125 A 10.0781,10.0781 0 0,0 -2.015625,-67.48 L -2.015625,-51.355 a 6.04688,6.04688 0 0,0 6.046875,6.046875 a 10.0781,10.0781 0 0,1 0,20.15625 a 6.04688,6.04688 0 0,0 -6.046875,6.046875 l 0,16.125 a 10.0781,10.0781 0 0,0 10.078125,10.078125 L 104.8125,7.098125 a 10.0781,10.0781 0 0,0 10.078125,-10.078125 L 114.890625,-19.105 a 6.04688,6.04688 0 0,0 -6.046875,-6.046875 a 10.0781,10.0781 0 0,1 0,-20.15625 Z M 10.078125,-13.894609375 a 22.1719,22.1719 0 0,0 0,-42.67078125 L 10.078125,-65.464375 L 36.28125,-65.464375 L 36.28125,-4.995625 L 10.078125,-4.995625 Z m 92.71875,0 L 102.796875,-4.995625 L 48.375,-4.995625 L 48.375,-65.464375 L 102.796875,-65.464375 L 102.796875,-56.565390625 a 22.1719,22.1719 0 0,0 0,42.67078125 Z"/>
</g>
</g>
</svg>
