<?xml version="1.0" encoding="UTF-8"?>
<!DOCTYPE svg PUBLIC "-//W3C//DTD SVG 1.1//EN" "http://www.w3.org/Graphics/SVG/1.1/DTD/svg11.dtd">
<svg version="1.1" xmlns="http://www.w3.org/2000/svg" xmlns:xlink="http://www.w3.org/1999/xlink" width="3300" height="2200">
<!--Phosphor Icons (MIT) converted for Rikugan by scripts/gen_icons.py-->
<g id="Notes">
<rect height="2200" id="artboard" style="fill:white;opacity:1" width="3300" x="0" y="0"/>
<text id="template-version" style="stroke:none;fill:black;font-family:sans-serif;font-size:13;" transform="matrix(1 0 0 1 3036 1933)">Template v.3.0</text>
</g>
<g id="Guides">
<line id="Baseline-S" style="fill:none;stroke:#27AAE1;opacity:1;stroke-width:0.5;" x1="263" x2="3036" y1="696.0" y2="696.0"/>
<line id="Capline-S" style="fill:none;stroke:#27AAE1;opacity:1;stroke-width:0.5;" x1="263" x2="3036" y1="625.541" y2="625.541"/>
<line id="Baseline-M" style="fill:none;stroke:#27AAE1;opacity:1;stroke-width:0.5;" x1="263" x2="3036" y1="1126.0" y2="1126.0"/>
<line id="Capline-M" style="fill:none;stroke:#27AAE1;opacity:1;stroke-width:0.5;" x1="263" x2="3036" y1="1055.54" y2="1055.54"/>
<line id="Baseline-L" style="fill:none;stroke:#27AAE1;opacity:1;stroke-width:0.5;" x1="263" x2="3036" y1="1556.0" y2="1556.0"/>
<line id="Capline-L" style="fill:none;stroke:#27AAE1;opacity:1;stroke-width:0.5;" x1="263" x2="3036" y1="1485.54" y2="1485.54"/>
<line id="left-margin-Regular-M" style="fill:none;stroke:#00AEEF;stroke-width:0.5;opacity:1.0;" x1="1397.250" x2="1397.250" y1="1030.79" y2="1150.12"/>
<line id="right-margin-Regular-M" style="fill:none;stroke:#00AEEF;stroke-width:0.5;opacity:1.0;" x1="1484.750" x2="1484.750" y1="1030.79" y2="1150.12"/>
</g>
<g id="Symbols">
<g id="Regular-M">
<path d="M 1489.34765625,1069.285625 a 3.125,3.125 0 0,0 -3.20703125,0.15234375 L 1472.25,1078.68015625 L 1472.25,1068.895 a 6.25,6.25 0 0,0 -6.25,-6.25 L 1403.5,1062.645 A 6.25,6.25 0 0,0 1397.25,1068.895 L 1397.25,1112.645 a 6.25,6.25 0 0,0 6.25,6.25 L 1466,1118.895 a 6.25,6.25 0 0,0 6.25,-6.25 L 1472.25,1102.879375 l 13.890625,9.26171875 A 3.125,3.125 0 0,0 1487.875,1112.645 a 3.125,3.125 0 0,0 3.125,-3.125 L 1491,1072.02 A 3.125,3.125 0 0,0 1489.34765625,1069.285625 Z M 1466,1112.645 L 1403.5,1112.645 L 1403.5,1068.895 L 1466,1068.895 L 1466,1112.645 Z m 18.75,-8.96484375 l -12.5,-8.33203125 L 1472.25,1086.191875 L 1484.75,1077.879375 Z"/>
</g>
</g>
</svg>
