<?xml version="1.0" encoding="UTF-8"?>
<!DOCTYPE svg PUBLIC "-//W3C//DTD SVG 1.1//EN" "http://www.w3.org/Graphics/SVG/1.1/DTD/svg11.dtd">
<svg version="1.1" xmlns="http://www.w3.org/2000/svg" xmlns:xlink="http://www.w3.org/1999/xlink" width="3300" height="2200">
<!--Phosphor Icons (MIT) converted for Rikugan by scripts/gen_icons.py-->
<g id="Notes">
<rect height="2200" id="artboard" style="fill:white;opacity:1" width="3300" x="0" y="0"/>
<text id="template-version" style="stroke:none;fill:black;font-family:sans-serif;font-size:13;" transform="matrix(1 0 0 1 3036 1933)">Template v.3.0</text>
</g>
<g id="Guides">
<line id="Baseline-S" style="fill:none;stroke:#27AAE1;opacity:1;stroke-width:0.5;" x1="263" x2="3036" y1="696.0" y2="696.0"/>
<line id="Capline-S" style="fill:none;stroke:#27AAE1;opacity:1;stroke-width:0.5;" x1="263" x2="3036" y1="625.541" y2="625.541"/>
<line id="Baseline-M" style="fill:none;stroke:#27AAE1;opacity:1;stroke-width:0.5;" x1="263" x2="3036" y1="1126.0" y2="1126.0"/>
<line id="Capline-M" style="fill:none;stroke:#27AAE1;opacity:1;stroke-width:0.5;" x1="263" x2="3036" y1="1055.54" y2="1055.54"/>
<line id="Baseline-L" style="fill:none;stroke:#27AAE1;opacity:1;stroke-width:0.5;" x1="263" x2="3036" y1="1556.0" y2="1556.0"/>
<line id="Capline-L" style="fill:none;stroke:#27AAE1;opacity:1;stroke-width:0.5;" x1="263" x2="3036" y1="1485.54" y2="1485.54"/>
<line id="left-margin-Ultralight-S" style="fill:none;stroke:#00AEEF;stroke-width:0.5;opacity:1.0;" x1="500.870" x2="500.870" y1="601.00" y2="720.00"/>
<line id="right-margin-Ultralight-S" style="fill:none;stroke:#00AEEF;stroke-width:0.5;opacity:1.0;" x1="569.383" x2="569.383" y1="601.00" y2="720.00"/>
<line id="left-margin-Ultralight-M" style="fill:none;stroke:#00AEEF;stroke-width:0.5;opacity:1.0;" x1="500.870" x2="500.870" y1="1031.00" y2="1150.00"/>
<line id="right-margin-Ultralight-M" style="fill:none;stroke:#00AEEF;stroke-width:0.5;opacity:1.0;" x1="588.370" x2="588.370" y1="1031.00" y2="1150.00"/>
<line id="left-margin-Ultralight-L" style="fill:none;stroke:#00AEEF;stroke-width:0.5;opacity:1.0;" x1="500.870" x2="500.870" y1="1461.00" y2="1580.00"/>
<line id="right-margin-Ultralight-L" style="fill:none;stroke:#00AEEF;stroke-width:0.5;opacity:1.0;" x1="613.745" x2="613.745" y1="1461.00" y2="1580.00"/>
<line id="left-margin-Thin-S" style="fill:none;stroke:#00AEEF;stroke-width:0.5;opacity:1.0;" x1="797.580" x2="797.580" y1="601.00" y2="720.00"/>
<line id="right-margin-Thin-S" style="fill:none;stroke:#00AEEF;stroke-width:0.5;opacity:1.0;" x1="866.093" x2="866.093" y1="601.00" y2="720.00"/>
<line id="left-margin-Thin-M" style="fill:none;stroke:#00AEEF;stroke-width:0.5;opacity:1.0;" x1="797.580" x2="797.580" y1="1031.00" y2="1150.00"/>
<line id="right-margin-Thin-M" style="fill:none;stroke:#00AEEF;stroke-width:0.5;opacity:1.0;" x1="885.080" x2="885.080" y1="1031.00" y2="1150.00"/>
<line id="left-margin-Thin-L" style="fill:none;stroke:#00AEEF;stroke-width:0.5;opacity:1.0;" x1="797.580" x2="797.580" y1="1461.00" y2="1580.00"/>
<line id="right-margin-Thin-L" style="fill:none;stroke:#00AEEF;stroke-width:0.5;opacity:1.0;" x1="910.455" x2="910.455" y1="1461.00" y2="1580.00"/>
<line id="left-margin-Light-S" style="fill:none;stroke:#00AEEF;stroke-width:0.5;opacity:1.0;" x1="1094.290" x2="1094.290" y1="601.00" y2="720.00"/>
<line id="right-margin-Light-S" style="fill:none;stroke:#00AEEF;stroke-width:0.5;opacity:1.0;" x1="1162.803" x2="1162.803" y1="601.00" y2="720.00"/>
<line id="left-margin-Light-M" style="fill:none;stroke:#00AEEF;stroke-width:0.5;opacity:1.0;" x1="1094.290" x2="1094.290" y1="1031.00" y2="1150.00"/>
<line id="right-margin-Light-M" style="fill:none;stroke:#00AEEF;stroke-width:0.5;opacity:1.0;" x1="1181.790" x2="1181.790" y1="1031.00" y2="1150.00"/>
<line id="left-margin-Light-L" style="fill:none;stroke:#00AEEF;stroke-width:0.5;opacity:1.0;" x1="1094.290" x2="1094.290" y1="1461.00" y2="1580.00"/>
<line id="right-margin-Light-L" style="fill:none;stroke:#00AEEF;stroke-width:0.5;opacity:1.0;" x1="1207.165" x2="1207.165" y1="1461.00" y2="1580.00"/>
<line id="left-margin-Regular-S" style="fill:none;stroke:#00AEEF;stroke-width:0.5;opacity:1.0;" x1="1391.000" x2="1391.000" y1="601.00" y2="720.00"/>
<line id="right-margin-Regular-S" style="fill:none;stroke:#00AEEF;stroke-width:0.5;opacity:1.0;" x1="1459.513" x2="1459.513" y1="601.00" y2="720.00"/>
<line id="left-margin-Regular-M" style="fill:none;stroke:#00AEEF;stroke-width:0.5;opacity:1.0;" x1="1391.000" x2="1391.000" y1="1031.00" y2="1150.00"/>
<line id="right-margin-Regular-M" style="fill:none;stroke:#00AEEF;stroke-width:0.5;opacity:1.0;" x1="1478.500" x2="1478.500" y1="1031.00" y2="1150.00"/>
<line id="left-margin-Regular-L" style="fill:none;stroke:#00AEEF;stroke-width:0.5;opacity:1.0;" x1="1391.000" x2="1391.000" y1="1461.00" y2="1580.00"/>
<line id="right-margin-Regular-L" style="fill:none;stroke:#00AEEF;stroke-width:0.5;opacity:1.0;" x1="1503.875" x2="1503.875" y1="1461.00" y2="1580.00"/>
<line id="left-margin-Medium-S" style="fill:none;stroke:#00AEEF;stroke-width:0.5;opacity:1.0;" x1="1687.710" x2="1687.710" y1="601.00" y2="720.00"/>
<line id="right-margin-Medium-S" style="fill:none;stroke:#00AEEF;stroke-width:0.5;opacity:1.0;" x1="1756.223" x2="1756.223" y1="601.00" y2="720.00"/>
<line id="left-margin-Medium-M" style="fill:none;stroke:#00AEEF;stroke-width:0.5;opacity:1.0;" x1="1687.710" x2="1687.710" y1="1031.00" y2="1150.00"/>
<line id="right-margin-Medium-M" style="fill:none;stroke:#00AEEF;stroke-width:0.5;opacity:1.0;" x1="1775.210" x2="1775.210" y1="1031.00" y2="1150.00"/>
<line id="left-margin-Medium-L" style="fill:none;stroke:#00AEEF;stroke-width:0.5;opacity:1.0;" x1="1687.710" x2="1687.710" y1="1461.00" y2="1580.00"/>
<line id="right-margin-Medium-L" style="fill:none;stroke:#00AEEF;stroke-width:0.5;opacity:1.0;" x1="1800.585" x2="1800.585" y1="1461.00" y2="1580.00"/>
<line id="left-margin-Semibold-S" style="fill:none;stroke:#00AEEF;stroke-width:0.5;opacity:1.0;" x1="1984.420" x2="1984.420" y1="601.00" y2="720.00"/>
<line id="right-margin-Semibold-S" style="fill:none;stroke:#00AEEF;stroke-width:0.5;opacity:1.0;" x1="2052.932" x2="2052.932" y1="601.00" y2="720.00"/>
<line id="left-margin-Semibold-M" style="fill:none;stroke:#00AEEF;stroke-width:0.5;opacity:1.0;" x1="1984.420" x2="1984.420" y1="1031.00" y2="1150.00"/>
<line id="right-margin-Semibold-M" style="fill:none;stroke:#00AEEF;stroke-width:0.5;opacity:1.0;" x1="2071.920" x2="2071.920" y1="1031.00" y2="1150.00"/>
<line id="left-margin-Semibold-L" style="fill:none;stroke:#00AEEF;stroke-width:0.5;opacity:1.0;" x1="1984.420" x2="1984.420" y1="1461.00" y2="1580.00"/>
<line id="right-margin-Semibold-L" style="fill:none;stroke:#00AEEF;stroke-width:0.5;opacity:1.0;" x1="2097.295" x2="2097.295" y1="1461.00" y2="1580.00"/>
<line id="left-margin-Bold-S" style="fill:none;stroke:#00AEEF;stroke-width:0.5;opacity:1.0;" x1="2281.130" x2="2281.130" y1="601.00" y2="720.00"/>
<line id="right-margin-Bold-S" style="fill:none;stroke:#00AEEF;stroke-width:0.5;opacity:1.0;" x1="2349.642" x2="2349.642" y1="601.00" y2="720.00"/>
<line id="left-margin-Bold-M" style="fill:none;stroke:#00AEEF;stroke-width:0.5;opacity:1.0;" x1="2281.130" x2="2281.130" y1="1031.00" y2="1150.00"/>
<line id="right-margin-Bold-M" style="fill:none;stroke:#00AEEF;stroke-width:0.5;opacity:1.0;" x1="2368.630" x2="2368.630" y1="1031.00" y2="1150.00"/>
<line id="left-margin-Bold-L" style="fill:none;stroke:#00AEEF;stroke-width:0.5;opacity:1.0;" x1="2281.130" x2="2281.130" y1="1461.00" y2="1580.00"/>
<line id="right-margin-Bold-L" style="fill:none;stroke:#00AEEF;stroke-width:0.5;opacity:1.0;" x1="2394.005" x2="2394.005" y1="1461.00" y2="1580.00"/>
<line id="left-margin-Heavy-S" style="fill:none;stroke:#00AEEF;stroke-width:0.5;opacity:1.0;" x1="2577.840" x2="2577.840" y1="601.00" y2="720.00"/>
<line id="right-margin-Heavy-S" style="fill:none;stroke:#00AEEF;stroke-width:0.5;opacity:1.0;" x1="2646.352" x2="2646.352" y1="601.00" y2="720.00"/>
<line id="left-margin-Heavy-M" style="fill:none;stroke:#00AEEF;stroke-width:0.5;opacity:1.0;" x1="2577.840" x2="2577.840" y1="1031.00" y2="1150.00"/>
<line id="right-margin-Heavy-M" style="fill:none;stroke:#00AEEF;stroke-width:0.5;opacity:1.0;" x1="2665.340" x2="2665.340" y1="1031.00" y2="1150.00"/>
<line id="left-margin-Heavy-L" style="fill:none;stroke:#00AEEF;stroke-width:0.5;opacity:1.0;" x1="2577.840" x2="2577.840" y1="1461.00" y2="1580.00"/>
<line id="right-margin-Heavy-L" style="fill:none;stroke:#00AEEF;stroke-width:0.5;opacity:1.0;" x1="2690.715" x2="2690.715" y1="1461.00" y2="1580.00"/>
<line id="left-margin-Black-S" style="fill:none;stroke:#00AEEF;stroke-width:0.5;opacity:1.0;" x1="2874.550" x2="2874.550" y1="601.00" y2="720.00"/>
<line id="right-margin-Black-S" style="fill:none;stroke:#00AEEF;stroke-width:0.5;opacity:1.0;" x1="2943.062" x2="2943.062" y1="601.00" y2="720.00"/>
<line id="left-margin-Black-M" style="fill:none;stroke:#00AEEF;stroke-width:0.5;opacity:1.0;" x1="2874.550" x2="2874.550" y1="1031.00" y2="1150.00"/>
<line id="right-margin-Black-M" style="fill:none;stroke:#00AEEF;stroke-width:0.5;opacity:1.0;" x1="2962.050" x2="2962.050" y1="1031.00" y2="1150.00"/>
<line id="left-margin-Black-L" style="fill:none;stroke:#00AEEF;stroke-width:0.5;opacity:1.0;" x1="2874.550" x2="2874.550" y1="1461.00" y2="1580.00"/>
<line id="right-margin-Black-L" style="fill:none;stroke:#00AEEF;stroke-width:0.5;opacity:1.0;" x1="2987.425" x2="2987.425" y1="1461.00" y2="1580.00"/>
</g>
<g id="Symbols">
<g id="Ultralight-S" transform="matrix(1 0 0 1 500.870 696.0)">
<path d="M 56.278125,-63.3690625 L 44.04375,-63.3690625 a 3.67031,3.67031 0 0,0 -3.6703125,3.6703125 L 40.3734375,-10.76125 a 3.67031,3.67031 0 0,0 3.6703125,3.6703125 l 12.234375,0 a 3.67031,3.67031 0 0,0 3.6703125,-3.6703125 L 59.9484375,-59.69875 A 3.67031,3.67031 0 0,0 56.278125,-63.3690625 Z m 1.2234375,52.6078125 a 1.22344,1.22344 0 0,1 -1.2234375,1.2234375 L 44.04375,-9.5378125 a 1.22344,1.22344 0 0,1 -1.2234375,-1.2234375 L 42.8203125,-59.69875 a 1.22344,1.22344 0 0,1 1.2234375,-1.2234375 l 12.234375,0 a 1.22344,1.22344 0 0,1 1.2234375,1.2234375 Z M 24.46875,-63.3690625 L 12.234375,-63.3690625 A 3.67031,3.67031 0 0,0 8.5640625,-59.69875 L 8.5640625,-10.76125 a 3.67031,3.67031 0 0,0 3.6703125,3.6703125 L 24.46875,-7.0909375 a 3.67031,3.67031 0 0,0 3.6703125,-3.6703125 L 28.1390625,-59.69875 A 3.67031,3.67031 0 0,0 24.46875,-63.3690625 Z m 1.2234375,52.6078125 a 1.22344,1.22344 0 0,1 -1.2234375,1.2234375 L 12.234375,-9.5378125 a 1.22344,1.22344 0 0,1 -1.2234375,-1.2234375 L 11.0109375,-59.69875 a 1.22344,1.22344 0 0,1 1.2234375,-1.2234375 L 24.46875,-60.9221875 a 1.22344,1.22344 0 0,1 1.2234375,1.2234375 Z"/>
</g>
<g id="Ultralight-M" transform="matrix(1 0 0 1 500.870 1126.0)">
<path d="M 71.875,-71.1675 L 56.25,-71.1675 a 4.6875,4.6875 0 0,0 -4.6875,4.6875 L 51.5625,-3.98 a 4.6875,4.6875 0 0,0 4.6875,4.6875 l 15.625,0 a 4.6875,4.6875 0 0,0 4.6875,-4.6875 L 76.5625,-66.48 A 4.6875,4.6875 0 0,0 71.875,-71.1675 Z m 1.5625,67.1875 a 1.5625,1.5625 0 0,1 -1.5625,1.5625 L 56.25,-2.4175 a 1.5625,1.5625 0 0,1 -1.5625,-1.5625 L 54.6875,-66.48 a 1.5625,1.5625 0 0,1 1.5625,-1.5625 l 15.625,0 a 1.5625,1.5625 0 0,1 1.5625,1.5625 Z M 31.25,-71.1675 L 15.625,-71.1675 A 4.6875,4.6875 0 0,0 10.9375,-66.48 L 10.9375,-3.98 a 4.6875,4.6875 0 0,0 4.6875,4.6875 L 31.25,0.7075 a 4.6875,4.6875 0 0,0 4.6875,-4.6875 L 35.9375,-66.48 A 4.6875,4.6875 0 0,0 31.25,-71.1675 Z m 1.5625,67.1875 a 1.5625,1.5625 0 0,1 -1.5625,1.5625 L 15.625,-2.4175 a 1.5625,1.5625 0 0,1 -1.5625,-1.5625 L 14.0625,-66.48 a 1.5625,1.5625 0 0,1 1.5625,-1.5625 L 31.25,-68.0425 a 1.5625,1.5625 0 0,1 1.5625,1.5625 Z"/>
</g>
<g id="Ultralight-L" transform="matrix(1 0 0 1 500.870 1556.0)">
<path d="M 92.71875,-81.589375 L 72.5625,-81.589375 a 6.04688,6.04688 0 0,0 -6.046875,6.046875 L 66.515625,5.0825 a 6.04688,6.04688 0 0,0 6.046875,6.046875 l 20.15625,0 a 6.04688,6.04688 0 0,0 6.046875,-6.046875 L 98.765625,-75.5425 A 6.04688,6.04688 0 0,0 92.71875,-81.589375 Z m 2.015625,86.671875 a 2.01562,2.01562 0 0,1 -2.015625,2.015625 L 72.5625,7.098125 a 2.01562,2.01562 0 0,1 -2.015625,-2.015625 L 70.546875,-75.5425 a 2.01562,2.01562 0 0,1 2.015625,-2.015625 l 20.15625,0 a 2.01562,2.01562 0 0,1 2.015625,2.015625 Z M 40.3125,-81.589375 L 20.15625,-81.589375 A 6.04688,6.04688 0 0,0 14.109375,-75.5425 L 14.109375,5.0825 a 6.04688,6.04688 0 0,0 6.046875,6.046875 L 40.3125,11.129375 a 6.04688,6.04688 0 0,0 6.046875,-6.046875 L 46.359375,-75.5425 A 6.04688,6.04688 0 0,0 40.3125,-81.589375 Z m 2.015625,86.671875 a 2.01562,2.01562 0 0,1 -2.015625,2.015625 L 20.15625,7.098125 a 2.01562,2.01562 0 0,1 -2.015625,-2.015625 L 18.140625,-75.5425 a 2.01562,2.01562 0 0,1 2.015625,-2.015625 L 40.3125,-77.558125 a 2.01562,2.01562 0 0,1 2.015625,2.015625 Z"/>
</g>
<g id="Thin-S" transform="matrix(1 0 0 1 797.580 696.0)">
<path d="M 56.278125,-63.3690625 L 44.04375,-63.3690625 a 3.67031,3.67031 0 0,0 -3.6703125,3.6703125 L 40.3734375,-10.76125 a 3.67031,3.67031 0 0,0 3.6703125,3.6703125 l 12.234375,0 a 3.67031,3.67031 0 0,0 3.6703125,-3.6703125 L 59.9484375,-59.69875 A 3.67031,3.67031 0 0,0 56.278125,-63.3690625 Z m 1.2234375,52.6078125 a 1.22344,1.22344 0 0,1 -1.2234375,1.2234375 L 44.04375,-9.5378125 a 1.22344,1.22344 0 0,1 -1.2234375,-1.2234375 L 42.8203125,-59.69875 a 1.22344,1.22344 0 0,1 1.2234375,-1.2234375 l 12.234375,0 a 1.22344,1.22344 0 0,1 1.2234375,1.2234375 Z M 24.46875,-63.3690625 L 12.234375,-63.3690625 A 3.67031,3.67031 0 0,0 8.5640625,-59.69875 L 8.5640625,-10.76125 a 3.67031,3.67031 0 0,0 3.6703125,3.6703125 L 24.46875,-7.0909375 a 3.67031,3.67031 0 0,0 3.6703125,-3.6703125 L 28.1390625,-59.69875 A 3.67031,3.67031 0 0,0 24.46875,-63.3690625 Z m 1.2234375,52.6078125 a 1.22344,1.22344 0 0,1 -1.2234375,1.2234375 L 12.234375,-9.5378125 a 1.22344,1.22344 0 0,1 -1.2234375,-1.2234375 L 11.0109375,-59.69875 a 1.22344,1.22344 0 0,1 1.2234375,-1.2234375 L 24.46875,-60.9221875 a 1.22344,1.22344 0 0,1 1.2234375,1.2234375 Z"/>
</g>
<g id="Thin-M" transform="matrix(1 0 0 1 797.580 1126.0)">
<path d="M 71.875,-71.1675 L 56.25,-71.1675 a 4.6875,4.6875 0 0,0 -4.6875,4.6875 L 51.5625,-3.98 a 4.6875,4.6875 0 0,0 4.6875,4.6875 l 15.625,0 a 4.6875,4.6875 0 0,0 4.6875,-4.6875 L 76.5625,-66.48 A 4.6875,4.6875 0 0,0 71.875,-71.1675 Z m 1.5625,67.1875 a 1.5625,1.5625 0 0,1 -1.5625,1.5625 L 56.25,-2.4175 a 1.5625,1.5625 0 0,1 -1.5625,-1.5625 L 54.6875,-66.48 a 1.5625,1.5625 0 0,1 1.5625,-1.5625 l 15.625,0 a 1.5625,1.5625 0 0,1 1.5625,1.5625 Z M 31.25,-71.1675 L 15.625,-71.1675 A 4.6875,4.6875 0 0,0 10.9375,-66.48 L 10.9375,-3.98 a 4.6875,4.6875 0 0,0 4.6875,4.6875 L 31.25,0.7075 a 4.6875,4.6875 0 0,0 4.6875,-4.6875 L 35.9375,-66.48 A 4.6875,4.6875 0 0,0 31.25,-71.1675 Z m 1.5625,67.1875 a 1.5625,1.5625 0 0,1 -1.5625,1.5625 L 15.625,-2.4175 a 1.5625,1.5625 0 0,1 -1.5625,-1.5625 L 14.0625,-66.48 a 1.5625,1.5625 0 0,1 1.5625,-1.5625 L 31.25,-68.0425 a 1.5625,1.5625 0 0,1 1.5625,1.5625 Z"/>
</g>
<g id="Thin-L" transform="matrix(1 0 0 1 797.580 1556.0)">
<path d="M 92.71875,-81.589375 L 72.5625,-81.589375 a 6.04688,6.04688 0 0,0 -6.046875,6.046875 L 66.515625,5.0825 a 6.04688,6.04688 0 0,0 6.046875,6.046875 l 20.15625,0 a 6.04688,6.04688 0 0,0 6.046875,-6.046875 L 98.765625,-75.5425 A 6.04688,6.04688 0 0,0 92.71875,-81.589375 Z m 2.015625,86.671875 a 2.01562,2.01562 0 0,1 -2.015625,2.015625 L 72.5625,7.098125 a 2.01562,2.01562 0 0,1 -2.015625,-2.015625 L 70.546875,-75.5425 a 2.01562,2.01562 0 0,1 2.015625,-2.015625 l 20.15625,0 a 2.01562,2.01562 0 0,1 2.015625,2.015625 Z M 40.3125,-81.589375 L 20.15625,-81.589375 A 6.04688,6.04688 0 0,0 14.109375,-75.5425 L 14.109375,5.0825 a 6.04688,6.04688 0 0,0 6.046875,6.046875 L 40.3125,11.129375 a 6.04688,6.04688 0 0,0 6.046875,-6.046875 L 46.359375,-75.5425 A 6.04688,6.04688 0 0,0 40.3125,-81.589375 Z m 2.015625,86.671875 a 2.01562,2.01562 0 0,1 -2.015625,2.015625 L 20.15625,7.098125 a 2.01562,2.01562 0 0,1 -2.015625,-2.015625 L 18.140625,-75.5425 a 2.01562,2.01562 0 0,1 2.015625,-2.015625 L 40.3125,-77.558125 a 2.01562,2.01562 0 0,1 2.015625,2.015625 Z"/>
</g>
<g id="Light-S" transform="matrix(1 0 0 1 1094.290 696.0)">
<path d="M 56.278125,-63.98078125 L 44.04375,-63.98078125 a 4.28203,4.28203 0 0,0 -4.28203125,4.28203125 L 39.76171875,-10.76125 a 4.28203,4.28203 0 0,0 4.28203125,4.28203125 l 12.234375,0 a 4.28203,4.28203 0 0,0 4.28203125,-4.28203125 L 60.56015625,-59.69875 A 4.28203,4.28203 0 0,0 56.278125,-63.98078125 Z m 0.61171875,53.21953125 a 0.611719,0.611719 0 0,1 -0.61171875,0.61171875 L 44.04375,-10.14953125 a 0.611719,0.611719 0 0,1 -0.61171875,-0.61171875 L 43.43203125,-59.69875 a 0.611719,0.611719 0 0,1 0.61171875,-0.61171875 l 12.234375,0 a 0.611719,0.611719 0 0,1 0.61171875,0.61171875 Z M 24.46875,-63.98078125 L 12.234375,-63.98078125 A 4.28203,4.28203 0 0,0 7.95234375,-59.69875 L 7.95234375,-10.76125 a 4.28203,4.28203 0 0,0 4.28203125,4.28203125 L 24.46875,-6.47921875 a 4.28203,4.28203 0 0,0 4.28203125,-4.28203125 L 28.75078125,-59.69875 A 4.28203,4.28203 0 0,0 24.46875,-63.98078125 Z m 0.61171875,53.21953125 a 0.611719,0.611719 0 0,1 -0.61171875,0.61171875 L 12.234375,-10.14953125 a 0.611719,0.611719 0 0,1 -0.61171875,-0.61171875 L 11.62265625,-59.69875 a 0.611719,0.611719 0 0,1 0.61171875,-0.61171875 L 24.46875,-60.31046875 a 0.611719,0.611719 0 0,1 0.61171875,0.61171875 Z"/>
</g>
<g id="Light-M" transform="matrix(1 0 0 1 1094.290 1126.0)">
<path d="M 71.875,-71.94875 L 56.25,-71.94875 a 5.46875,5.46875 0 0,0 -5.46875,5.46875 L 50.78125,-3.98 a 5.46875,5.46875 0 0,0 5.46875,5.46875 l 15.625,0 a 5.46875,5.46875 0 0,0 5.46875,-5.46875 L 77.34375,-66.48 A 5.46875,5.46875 0 0,0 71.875,-71.94875 Z m 0.78125,67.96875 a 0.78125,0.78125 0 0,1 -0.78125,0.78125 L 56.25,-3.19875 a 0.78125,0.78125 0 0,1 -0.78125,-0.78125 L 55.46875,-66.48 a 0.78125,0.78125 0 0,1 0.78125,-0.78125 l 15.625,0 a 0.78125,0.78125 0 0,1 0.78125,0.78125 Z M 31.25,-71.94875 L 15.625,-71.94875 A 5.46875,5.46875 0 0,0 10.15625,-66.48 L 10.15625,-3.98 a 5.46875,5.46875 0 0,0 5.46875,5.46875 L 31.25,1.48875 a 5.46875,5.46875 0 0,0 5.46875,-5.46875 L 36.71875,-66.48 A 5.46875,5.46875 0 0,0 31.25,-71.94875 Z m 0.78125,67.96875 a 0.78125,0.78125 0 0,1 -0.78125,0.78125 L 15.625,-3.19875 a 0.78125,0.78125 0 0,1 -0.78125,-0.78125 L 14.84375,-66.48 a 0.78125,0.78125 0 0,1 0.78125,-0.78125 L 31.25,-67.26125 a 0.78125,0.78125 0 0,1 0.78125,0.78125 Z"/>
</g>
<g id="Light-L" transform="matrix(1 0 0 1 1094.290 1556.0)">
<path d="M 92.71875,-82.5971875 L 72.5625,-82.5971875 a 7.05469,7.05469 0 0,0 -7.0546875,7.0546875 L 65.5078125,5.0825 a 7.05469,7.05469 0 0,0 7.0546875,7.0546875 l 20.15625,0 a 7.05469,7.05469 0 0,0 7.0546875,-7.0546875 L 99.7734375,-75.5425 A 7.05469,7.05469 0 0,0 92.71875,-82.5971875 Z m 1.0078125,87.6796875 a 1.00781,1.00781 0 0,1 -1.0078125,1.0078125 L 72.5625,6.0903125 a 1.00781,1.00781 0 0,1 -1.0078125,-1.0078125 L 71.5546875,-75.5425 a 1.00781,1.00781 0 0,1 1.0078125,-1.0078125 l 20.15625,0 a 1.00781,1.00781 0 0,1 1.0078125,1.0078125 Z M 40.3125,-82.5971875 L 20.15625,-82.5971875 A 7.05469,7.05469 0 0,0 13.1015625,-75.5425 L 13.1015625,5.0825 a 7.05469,7.05469 0 0,0 7.0546875,7.0546875 L 40.3125,12.1371875 a 7.05469,7.05469 0 0,0 7.0546875,-7.0546875 L 47.3671875,-75.5425 A 7.05469,7.05469 0 0,0 40.3125,-82.5971875 Z m 1.0078125,87.6796875 a 1.00781,1.00781 0 0,1 -1.0078125,1.0078125 L 20.15625,6.0903125 a 1.00781,1.00781 0 0,1 -1.0078125,-1.0078125 L 19.1484375,-75.5425 a 1.00781,1.00781 0 0,1 1.0078125,-1.0078125 L 40.3125,-76.5503125 a 1.00781,1.00781 0 0,1 1.0078125,1.0078125 Z"/>
</g>
<g id="Regular-S" transform="matrix(1 0 0 1 1391.000 696.0)">
<path d="M 56.278125,-64.5925 L 44.04375,-64.5925 a 4.89375,4.89375 0 0,0 -4.89375,4.89375 L 39.15,-10.76125 a 4.89375,4.89375 0 0,0 4.89375,4.89375 l 12.234375,0 a 4.89375,4.89375 0 0,0 4.89375,-4.89375 L 61.171875,-59.69875 A 4.89375,4.89375 0 0,0 56.278125,-64.5925 Z m 0,53.83125 L 44.04375,-10.76125 L 44.04375,-59.69875 l 12.234375,0 Z M 24.46875,-64.5925 L 12.234375,-64.5925 A 4.89375,4.89375 0 0,0 7.340625,-59.69875 L 7.340625,-10.76125 a 4.89375,4.89375 0 0,0 4.89375,4.89375 L 24.46875,-5.8675 a 4.89375,4.89375 0 0,0 4.89375,-4.89375 L 29.3625,-59.69875 A 4.89375,4.89375 0 0,0 24.46875,-64.5925 Z m 0,53.83125 L 12.234375,-10.76125 L 12.234375,-59.69875 L 24.46875,-59.69875 Z"/>
</g>
<g id="Regular-M" transform="matrix(1 0 0 1 1391.000 1126.0)">
<path d="M 71.875,-72.73 L 56.25,-72.73 a 6.25,6.25 0 0,0 -6.25,6.25 L 50,-3.98 a 6.25,6.25 0 0,0 6.25,6.25 l 15.625,0 a 6.25,6.25 0 0,0 6.25,-6.25 L 78.125,-66.48 A 6.25,6.25 0 0,0 71.875,-72.73 Z m 0,68.75 L 56.25,-3.98 L 56.25,-66.48 l 15.625,0 Z M 31.25,-72.73 L 15.625,-72.73 A 6.25,6.25 0 0,0 9.375,-66.48 L 9.375,-3.98 a 6.25,6.25 0 0,0 6.25,6.25 L 31.25,2.27 a 6.25,6.25 0 0,0 6.25,-6.25 L 37.5,-66.48 A 6.25,6.25 0 0,0 31.25,-72.73 Z m 0,68.75 L 15.625,-3.98 L 15.625,-66.48 L 31.25,-66.48 Z"/>
</g>
<g id="Regular-L" transform="matrix(1 0 0 1 1391.000 1556.0)">
<path d="M 92.71875,-83.605 L 72.5625,-83.605 a 8.0625,8.0625 0 0,0 -8.0625,8.0625 L 64.5,5.0825 a 8.0625,8.0625 0 0,0 8.0625,8.0625 l 20.15625,0 a 8.0625,8.0625 0 0,0 8.0625,-8.0625 L 100.78125,-75.5425 A 8.0625,8.0625 0 0,0 92.71875,-83.605 Z m 0,88.6875 L 72.5625,5.0825 L 72.5625,-75.5425 l 20.15625,0 Z M 40.3125,-83.605 L 20.15625,-83.605 A 8.0625,8.0625 0 0,0 12.09375,-75.5425 L 12.09375,5.0825 a 8.0625,8.0625 0 0,0 8.0625,8.0625 L 40.3125,13.145 a 8.0625,8.0625 0 0,0 8.0625,-8.0625 L 48.375,-75.5425 A 8.0625,8.0625 0 0,0 40.3125,-83.605 Z m 0,88.6875 L 20.15625,5.0825 L 20.15625,-75.5425 L 40.3125,-75.5425 Z"/>
</g>
<g id="Medium-S" transform="matrix(1 0 0 1 1687.710 696.0)">
<path d="M 56.278125,-64.5925 L 44.04375,-64.5925 a 4.89375,4.89375 0 0,0 -4.89375,4.89375 L 39.15,-10.76125 a 4.89375,4.89375 0 0,0 4.89375,4.89375 l 12.234375,0 a 4.89375,4.89375 0 0,0 4.89375,-4.89375 L 61.171875,-59.69875 A 4.89375,4.89375 0 0,0 56.278125,-64.5925 Z m 0,53.83125 L 44.04375,-10.76125 L 44.04375,-59.69875 l 12.234375,0 Z M 24.46875,-64.5925 L 12.234375,-64.5925 A 4.89375,4.89375 0 0,0 7.340625,-59.69875 L 7.340625,-10.76125 a 4.89375,4.89375 0 0,0 4.89375,4.89375 L 24.46875,-5.8675 a 4.89375,4.89375 0 0,0 4.89375,-4.89375 L 29.3625,-59.69875 A 4.89375,4.89375 0 0,0 24.46875,-64.5925 Z m 0,53.83125 L 12.234375,-10.76125 L 12.234375,-59.69875 L 24.46875,-59.69875 Z"/>
</g>
<g id="Medium-M" transform="matrix(1 0 0 1 1687.710 1126.0)">
<path d="M 71.875,-72.73 L 56.25,-72.73 a 6.25,6.25 0 0,0 -6.25,6.25 L 50,-3.98 a 6.25,6.25 0 0,0 6.25,6.25 l 15.625,0 a 6.25,6.25 0 0,0 6.25,-6.25 L 78.125,-66.48 A 6.25,6.25 0 0,0 71.875,-72.73 Z m 0,68.75 L 56.25,-3.98 L 56.25,-66.48 l 15.625,0 Z M 31.25,-72.73 L 15.625,-72.73 A 6.25,6.25 0 0,0 9.375,-66.48 L 9.375,-3.98 a 6.25,6.25 0 0,0 6.25,6.25 L 31.25,2.27 a 6.25,6.25 0 0,0 6.25,-6.25 L 37.5,-66.48 A 6.25,6.25 0 0,0 31.25,-72.73 Z m 0,68.75 L 15.625,-3.98 L 15.625,-66.48 L 31.25,-66.48 Z"/>
</g>
<g id="Medium-L" transform="matrix(1 0 0 1 1687.710 1556.0)">
<path d="M 92.71875,-83.605 L 72.5625,-83.605 a 8.0625,8.0625 0 0,0 -8.0625,8.0625 L 64.5,5.0825 a 8.0625,8.0625 0 0,0 8.0625,8.0625 l 20.15625,0 a 8.0625,8.0625 0 0,0 8.0625,-8.0625 L 100.78125,-75.5425 A 8.0625,8.0625 0 0,0 92.71875,-83.605 Z m 0,88.6875 L 72.5625,5.0825 L 72.5625,-75.5425 l 20.15625,0 Z M 40.3125,-83.605 L 20.15625,-83.605 A 8.0625,8.0625 0 0,0 12.09375,-75.5425 L 12.09375,5.0825 a 8.0625,8.0625 0 0,0 8.0625,8.0625 L 40.3125,13.145 a 8.0625,8.0625 0 0,0 8.0625,-8.0625 L 48.375,-75.5425 A 8.0625,8.0625 0 0,0 40.3125,-83.605 Z m 0,88.6875 L 20.15625,5.0825 L 20.15625,-75.5425 L 40.3125,-75.5425 Z"/>
</g>
<g id="Semibold-S" transform="matrix(1 0 0 1 1984.420 696.0)">
<path d="M 56.278125,-64.5925 L 44.04375,-64.5925 a 4.89375,4.89375 0 0,0 -4.89375,4.89375 L 39.15,-10.76125 a 4.89375,4.89375 0 0,0 4.89375,4.89375 l 12.234375,0 a 4.89375,4.89375 0 0,0 4.89375,-4.89375 L 61.171875,-59.69875 A 4.89375,4.89375 0 0,0 56.278125,-64.5925 Z m 0,53.83125 L 44.04375,-10.76125 L 44.04375,-59.69875 l 12.234375,0 Z M 24.46875,-64.5925 L 12.234375,-64.5925 A 4.89375,4.89375 0 0,0 7.340625,-59.69875 L 7.340625,-10.76125 a 4.89375,4.89375 0 0,0 4.89375,4.89375 L 24.46875,-5.8675 a 4.89375,4.89375 0 0,0 4.89375,-4.89375 L 29.3625,-59.69875 A 4.89375,4.89375 0 0,0 24.46875,-64.5925 Z m 0,53.83125 L 12.234375,-10.76125 L 12.234375,-59.69875 L 24.46875,-59.69875 Z"/>
</g>
<g id="Semibold-M" transform="matrix(1 0 0 1 1984.420 1126.0)">
<path d="M 71.875,-72.73 L 56.25,-72.73 a 6.25,6.25 0 0,0 -6.25,6.25 L 50,-3.98 a 6.25,6.25 0 0,0 6.25,6.25 l 15.625,0 a 6.25,6.25 0 0,0 6.25,-6.25 L 78.125,-66.48 A 6.25,6.25 0 0,0 71.875,-72.73 Z m 0,68.75 L 56.25,-3.98 L 56.25,-66.48 l 15.625,0 Z M 31.25,-72.73 L 15.625,-72.73 A 6.25,6.25 0 0,0 9.375,-66.48 L 9.375,-3.98 a 6.25,6.25 0 0,0 6.25,6.25 L 31.25,2.27 a 6.25,6.25 0 0,0 6.25,-6.25 L 37.5,-66.48 A 6.25,6.25 0 0,0 31.25,-72.73 Z m 0,68.75 L 15.625,-3.98 L 15.625,-66.48 L 31.25,-66.48 Z"/>
</g>
<g id="Semibold-L" transform="matrix(1 0 0 1 1984.420 1556.0)">
<path d="M 92.71875,-83.605 L 72.5625,-83.605 a 8.0625,8.0625 0 0,0 -8.0625,8.0625 L 64.5,5.0825 a 8.0625,8.0625 0 0,0 8.0625,8.0625 l 20.15625,0 a 8.0625,8.0625 0 0,0 8.0625,-8.0625 L 100.78125,-75.5425 A 8.0625,8.0625 0 0,0 92.71875,-83.605 Z m 0,88.6875 L 72.5625,5.0825 L 72.5625,-75.5425 l 20.15625,0 Z M 40.3125,-83.605 L 20.15625,-83.605 A 8.0625,8.0625 0 0,0 12.09375,-75.5425 L 12.09375,5.0825 a 8.0625,8.0625 0 0,0 8.0625,8.0625 L 40.3125,13.145 a 8.0625,8.0625 0 0,0 8.0625,-8.0625 L 48.375,-75.5425 A 8.0625,8.0625 0 0,0 40.3125,-83.605 Z m 0,88.6875 L 20.15625,5.0825 L 20.15625,-75.5425 L 40.3125,-75.5425 Z"/>
</g>
<g id="Bold-S" transform="matrix(1 0 0 1 2281.130 696.0)">
<path d="M 56.278125,-65.8159375 L 44.04375,-65.8159375 a 6.11719,6.11719 0 0,0 -6.1171875,6.1171875 L 37.9265625,-10.76125 a 6.11719,6.11719 0 0,0 6.1171875,6.1171875 l 12.234375,0 a 6.11719,6.11719 0 0,0 6.1171875,-6.1171875 L 62.3953125,-59.69875 A 6.11719,6.11719 0 0,0 56.278125,-65.8159375 Z m -1.2234375,53.83125 L 45.2671875,-11.9846875 L 45.2671875,-58.4753125 l 9.7875,0 Z M 24.46875,-65.8159375 L 12.234375,-65.8159375 A 6.11719,6.11719 0 0,0 6.1171875,-59.69875 L 6.1171875,-10.76125 a 6.11719,6.11719 0 0,0 6.1171875,6.1171875 L 24.46875,-4.6440625 a 6.11719,6.11719 0 0,0 6.1171875,-6.1171875 L 30.5859375,-59.69875 A 6.11719,6.11719 0 0,0 24.46875,-65.8159375 Z M 23.2453125,-11.9846875 L 13.4578125,-11.9846875 L 13.4578125,-58.4753125 L 23.2453125,-58.4753125 Z"/>
</g>
<g id="Bold-M" transform="matrix(1 0 0 1 2281.130 1126.0)">
<path d="M 71.875,-74.2925 L 56.25,-74.2925 a 7.8125,7.8125 0 0,0 -7.8125,7.8125 L 48.4375,-3.98 a 7.8125,7.8125 0 0,0 7.8125,7.8125 l 15.625,0 a 7.8125,7.8125 0 0,0 7.8125,-7.8125 L 79.6875,-66.48 A 7.8125,7.8125 0 0,0 71.875,-74.2925 Z m -1.5625,68.75 L 57.8125,-5.5425 L 57.8125,-64.9175 l 12.5,0 Z M 31.25,-74.2925 L 15.625,-74.2925 A 7.8125,7.8125 0 0,0 7.8125,-66.48 L 7.8125,-3.98 a 7.8125,7.8125 0 0,0 7.8125,7.8125 L 31.25,3.8325 a 7.8125,7.8125 0 0,0 7.8125,-7.8125 L 39.0625,-66.48 A 7.8125,7.8125 0 0,0 31.25,-74.2925 Z M 29.6875,-5.5425 L 17.1875,-5.5425 L 17.1875,-64.9175 L 29.6875,-64.9175 Z"/>
</g>
<g id="Bold-L" transform="matrix(1 0 0 1 2281.130 1556.0)">
<path d="M 92.71875,-85.620625 L 72.5625,-85.620625 a 10.0781,10.0781 0 0,0 -10.078125,10.078125 L 62.484375,5.0825 a 10.0781,10.0781 0 0,0 10.078125,10.078125 l 20.15625,0 a 10.0781,10.0781 0 0,0 10.078125,-10.078125 L 102.796875,-75.5425 A 10.0781,10.0781 0 0,0 92.71875,-85.620625 Z m -2.015625,88.6875 L 74.578125,3.066875 L 74.578125,-73.526875 l 16.125,0 Z M 40.3125,-85.620625 L 20.15625,-85.620625 A 10.0781,10.0781 0 0,0 10.078125,-75.5425 L 10.078125,5.0825 a 10.0781,10.0781 0 0,0 10.078125,10.078125 L 40.3125,15.160625 a 10.0781,10.0781 0 0,0 10.078125,-10.078125 L 50.390625,-75.5425 A 10.0781,10.0781 0 0,0 40.3125,-85.620625 Z M 38.296875,3.066875 L 22.171875,3.066875 L 22.171875,-73.526875 L 38.296875,-73.526875 Z"/>
</g>
<g id="Heavy-S" transform="matrix(1 0 0 1 2577.840 696.0)">
<path d="M 56.278125,-65.8159375 L 44.04375,-65.8159375 a 6.11719,6.11719 0 0,0 -6.1171875,6.1171875 L 37.9265625,-10.76125 a 6.11719,6.11719 0 0,0 6.1171875,6.1171875 l 12.234375,0 a 6.11719,6.11719 0 0,0 6.1171875,-6.1171875 L 62.3953125,-59.69875 A 6.11719,6.11719 0 0,0 56.278125,-65.8159375 Z m -1.2234375,53.83125 L 45.2671875,-11.9846875 L 45.2671875,-58.4753125 l 9.7875,0 Z M 24.46875,-65.8159375 L 12.234375,-65.8159375 A 6.11719,6.11719 0 0,0 6.1171875,-59.69875 L 6.1171875,-10.76125 a 6.11719,6.11719 0 0,0 6.1171875,6.1171875 L 24.46875,-4.6440625 a 6.11719,6.11719 0 0,0 6.1171875,-6.1171875 L 30.5859375,-59.69875 A 6.11719,6.11719 0 0,0 24.46875,-65.8159375 Z M 23.2453125,-11.9846875 L 13.4578125,-11.9846875 L 13.4578125,-58.4753125 L 23.2453125,-58.4753125 Z"/>
</g>
<g id="Heavy-M" transform="matrix(1 0 0 1 2577.840 1126.0)">
<path d="M 71.875,-74.2925 L 56.25,-74.2925 a 7.8125,7.8125 0 0,0 -7.8125,7.8125 L 48.4375,-3.98 a 7.8125,7.8125 0 0,0 7.8125,7.8125 l 15.625,0 a 7.8125,7.8125 0 0,0 7.8125,-7.8125 L 79.6875,-66.48 A 7.8125,7.8125 0 0,0 71.875,-74.2925 Z m -1.5625,68.75 L 57.8125,-5.5425 L 57.8125,-64.9175 l 12.5,0 Z M 31.25,-74.2925 L 15.625,-74.2925 A 7.8125,7.8125 0 0,0 7.8125,-66.48 L 7.8125,-3.98 a 7.8125,7.8125 0 0,0 7.8125,7.8125 L 31.25,3.8325 a 7.8125,7.8125 0 0,0 7.8125,-7.8125 L 39.0625,-66.48 A 7.8125,7.8125 0 0,0 31.25,-74.2925 Z M 29.6875,-5.5425 L 17.1875,-5.5425 L 17.1875,-64.9175 L 29.6875,-64.9175 Z"/>
</g>
<g id="Heavy-L" transform="matrix(1 0 0 1 2577.840 1556.0)">
<path d="M 92.71875,-85.620625 L 72.5625,-85.620625 a 10.0781,10.0781 0 0,0 -10.078125,10.078125 L 62.484375,5.0825 a 10.0781,10.0781 0 0,0 10.078125,10.078125 l 20.15625,0 a 10.0781,10.0781 0 0,0 10.078125,-10.078125 L 102.796875,-75.5425 A 10.0781,10.0781 0 0,0 92.71875,-85.620625 Z m -2.015625,88.6875 L 74.578125,3.066875 L 74.578125,-73.526875 l 16.125,0 Z M 40.3125,-85.620625 L 20.15625,-85.620625 A 10.0781,10.0781 0 0,0 10.078125,-75.5425 L 10.078125,5.0825 a 10.0781,10.0781 0 0,0 10.078125,10.078125 L 40.3125,15.160625 a 10.0781,10.0781 0 0,0 10.078125,-10.078125 L 50.390625,-75.5425 A 10.0781,10.0781 0 0,0 40.3125,-85.620625 Z M 38.296875,3.066875 L 22.171875,3.066875 L 22.171875,-73.526875 L 38.296875,-73.526875 Z"/>
</g>
<g id="Black-S" transform="matrix(1 0 0 1 2874.550 696.0)">
<path d="M 56.278125,-65.8159375 L 44.04375,-65.8159375 a 6.11719,6.11719 0 0,0 -6.1171875,6.1171875 L 37.9265625,-10.76125 a 6.11719,6.11719 0 0,0 6.1171875,6.1171875 l 12.234375,0 a 6.11719,6.11719 0 0,0 6.1171875,-6.1171875 L 62.3953125,-59.69875 A 6.11719,6.11719 0 0,0 56.278125,-65.8159375 Z m -1.2234375,53.83125 L 45.2671875,-11.9846875 L 45.2671875,-58.4753125 l 9.7875,0 Z M 24.46875,-65.8159375 L 12.234375,-65.8159375 A 6.11719,6.11719 0 0,0 6.1171875,-59.69875 L 6.1171875,-10.76125 a 6.11719,6.11719 0 0,0 6.1171875,6.1171875 L 24.46875,-4.6440625 a 6.11719,6.11719 0 0,0 6.1171875,-6.1171875 L 30.5859375,-59.69875 A 6.11719,6.11719 0 0,0 24.46875,-65.8159375 Z M 23.2453125,-11.9846875 L 13.4578125,-11.9846875 L 13.4578125,-58.4753125 L 23.2453125,-58.4753125 Z"/>
</g>
<g id="Black-M" transform="matrix(1 0 0 1 2874.550 1126.0)">
<path d="M 71.875,-74.2925 L 56.25,-74.2925 a 7.8125,7.8125 0 0,0 -7.8125,7.8125 L 48.4375,-3.98 a 7.8125,7.8125 0 0,0 7.8125,7.8125 l 15.625,0 a 7.8125,7.8125 0 0,0 7.8125,-7.8125 L 79.6875,-66.48 A 7.8125,7.8125 0 0,0 71.875,-74.2925 Z m -1.5625,68.75 L 57.8125,-5.5425 L 57.8125,-64.9175 l 12.5,0 Z M 31.25,-74.2925 L 15.625,-74.2925 A 7.8125,7.8125 0 0,0 7.8125,-66.48 L 7.8125,-3.98 a 7.8125,7.8125 0 0,0 7.8125,7.8125 L 31.25,3.8325 a 7.8125,7.8125 0 0,0 7.8125,-7.8125 L 39.0625,-66.48 A 7.8125,7.8125 0 0,0 31.25,-74.2925 Z M 29.6875,-5.5425 L 17.1875,-5.5425 L 17.1875,-64.9175 L 29.6875,-64.9175 Z"/>
</g>
<g id="Black-L" transform="matrix(1 0 0 1 2874.550 1556.0)">
<path d="M 92.71875,-85.620625 L 72.5625,-85.620625 a 10.0781,10.0781 0 0,0 -10.078125,10.078125 L 62.484375,5.0825 a 10.0781,10.0781 0 0,0 10.078125,10.078125 l 20.15625,0 a 10.0781,10.0781 0 0,0 10.078125,-10.078125 L 102.796875,-75.5425 A 10.0781,10.0781 0 0,0 92.71875,-85.620625 Z m -2.015625,88.6875 L 74.578125,3.066875 L 74.578125,-73.526875 l 16.125,0 Z M 40.3125,-85.620625 L 20.15625,-85.620625 A 10.0781,10.0781 0 0,0 10.078125,-75.5425 L 10.078125,5.0825 a 10.0781,10.0781 0 0,0 10.078125,10.078125 L 40.3125,15.160625 a 10.0781,10.0781 0 0,0 10.078125,-10.078125 L 50.390625,-75.5425 A 10.0781,10.0781 0 0,0 40.3125,-85.620625 Z M 38.296875,3.066875 L 22.171875,3.066875 L 22.171875,-73.526875 L 38.296875,-73.526875 Z"/>
</g>
</g>
</svg>
